<?xml version="1.0" encoding="UTF-8"?>
<svg version="1.1" xmlns="http://www.w3.org/2000/svg" width="445" height="420">
<path d="M0 0 C0.69738281 -0.00942627 1.39476562 -0.01885254 2.11328125 -0.02856445 C7.10626139 0.00281932 11.44512733 0.8925696 16.25 2.25 C15.92 2.91 15.59 3.57 15.25 4.25 C13.18725586 4.93261719 13.18725586 4.93261719 10.46484375 5.546875 C9.46727051 5.77987305 8.46969727 6.01287109 7.44189453 6.25292969 C5.83096924 6.62272949 5.83096924 6.62272949 4.1875 7 C-16.43435086 11.98470177 -35.71712751 19.30401188 -51.78125 33.6328125 C-53.75 35.25 -53.75 35.25 -55.75 35.25 C-55.75 35.91 -55.75 36.57 -55.75 37.25 C-57.1484375 38.58984375 -57.1484375 38.58984375 -59.125 40.1875 C-71.31815181 50.64183966 -79.94848967 63.35689941 -87.75 77.25 C-88.41 77.25 -89.07 77.25 -89.75 77.25 C-88.93369395 70.01986066 -86.51769404 64.24170428 -83.13842773 57.89794922 C-81.33500072 54.75125042 -81.33500072 54.75125042 -80.75 51.25 C-94.13104943 76.7894649 -100.55342344 101.22990377 -100.75 130.25 C-101.41 130.58 -102.07 130.91 -102.75 131.25 C-103.40043719 129.52255984 -104.04514844 127.7929631 -104.6875 126.0625 C-105.04714844 125.09957031 -105.40679687 124.13664062 -105.77734375 123.14453125 C-107.61154184 117.68613452 -107.84668677 112.95451962 -107.75 107.25 C-108.41 107.25 -109.07 107.25 -109.75 107.25 C-107.97236258 128.41544721 -104.25568472 147.45397032 -96.078125 167.05859375 C-94.40371629 171.08209938 -92.95670208 175.06203395 -91.75 179.25 C-92.08 179.91 -92.41 180.57 -92.75 181.25 C-91.71086786 183.65337287 -90.61909312 185.8919057 -89.375 188.1875 C-89.00922852 188.86337158 -88.64345703 189.53924316 -88.26660156 190.2355957 C-81.55133628 202.27828576 -71.03362651 214.53780845 -59.5 222.3125 C-58.13875 223.2715625 -58.13875 223.2715625 -56.75 224.25 C-56.75 225.24 -56.75 226.23 -56.75 227.25 C-61.52863552 225.87949604 -65.44614937 223.78756057 -69.5625 221.0625 C-70.17706055 220.6595874 -70.79162109 220.2566748 -71.42480469 219.84155273 C-82.82553868 212.29043666 -93.10541065 203.71688402 -100.75 192.25 C-101.41 191.59 -102.07 190.93 -102.75 190.25 C-109.97957524 178.74095327 -115.40137784 167.09231394 -119.75 154.25 C-118.34504665 167.03992013 -113.86184416 178.9665954 -107.75 190.25 C-108.74 190.58 -109.73 190.91 -110.75 191.25 C-112.02160666 189.66728767 -113.29225285 188.08380365 -114.5625 186.5 C-115.62404297 185.17742187 -115.62404297 185.17742187 -116.70703125 183.828125 C-118.42505002 181.66007071 -120.10373976 179.47271099 -121.75 177.25 C-118.48045303 183.76251225 -114.79848081 189.8320173 -110.5625 195.75 C-109.92078857 196.648396 -109.92078857 196.648396 -109.26611328 197.56494141 C-107.60225439 199.85576162 -105.96497188 202.0373597 -103.94921875 204.03125 C-102.75 205.25 -102.75 205.25 -102.75 207.25 C-101.76 207.58 -100.77 207.91 -99.75 208.25 C-99.75 208.91 -99.75 209.57 -99.75 210.25 C-99.17894531 210.4975 -98.60789062 210.745 -98.01953125 211 C-95.39476031 212.44565697 -93.59143774 214.16674416 -91.4375 216.25 C-84.72818885 222.42778126 -76.92593783 228.16203109 -68.75 232.25 C-68.75 232.91 -68.75 233.57 -68.75 234.25 C-78.71048661 232.53267472 -88.1959543 228.63647615 -96.75 223.25 C-75.53466732 244.46533268 -41.25465954 247.39821475 -13.10546875 247.44189453 C-4.55632878 247.36936893 3.80118838 246.50499589 12.25 245.25 C11.25 248.25 11.25 248.25 8.03125 249.93359375 C-16.68551619 260.40724969 -43.7546263 263.68654311 -69.75 255.25 C-70.81444336 254.90461182 -70.81444336 254.90461182 -71.90039062 254.55224609 C-79.90117136 251.87754563 -87.57959393 248.75142159 -94.75 244.25 C-65.24712541 265.72443748 -37.49913491 270.24192733 -1.75 266.25 C-2.08 267.24 -2.41 268.23 -2.75 269.25 C-11.8266843 273.66714013 -21.87693339 275.5491776 -31.75 277.25 C-6.71567087 276.36539473 17.47042546 268.06328364 36.48046875 251.44921875 C39.25 249.25 39.25 249.25 42.25 249.25 C40.65956621 254.33938811 37.5053049 258.12456643 34.25 262.25 C35.73250555 260.9621669 37.21090818 259.66960936 38.6875 258.375 C39.51121094 257.65570313 40.33492187 256.93640625 41.18359375 256.1953125 C43.30982155 254.41761255 43.30982155 254.41761255 44.25 252.25 C44.91 252.25 45.57 252.25 46.25 252.25 C46.50523437 251.69183594 46.76046875 251.13367188 47.0234375 250.55859375 C48.42055263 247.9289917 50.08078158 245.68930328 51.875 243.3125 C60.5274442 231.45254936 66.31257789 219.99763468 71.25 206.25 C72.24 206.25 73.23 206.25 74.25 206.25 C73.92 211.86 73.59 217.47 73.25 223.25 C77.32925143 212.03205857 80.20816416 201.4184569 81.95605469 189.60522461 C82.17116699 188.18995483 82.17116699 188.18995483 82.390625 186.74609375 C82.50954102 185.90232178 82.62845703 185.0585498 82.75097656 184.18920898 C82.9156543 183.54927002 83.08033203 182.90933105 83.25 182.25 C83.91 181.92 84.57 181.59 85.25 181.25 C91.13377126 204.52241666 84.18252109 229.01195657 72.25 249.25 C69.48457887 253.43339109 66.42499309 257.36945289 63.25 261.25 C64.52276912 261.36463939 64.52276912 261.36463939 65.96484375 259.625 C75.59585718 249.33386438 82.98630929 237.32611586 88.25 224.25 C88.91 224.25 89.57 224.25 90.25 224.25 C90.63293014 231.1345951 89.24470487 236.85385458 87.3125 243.4375 C86.76035125 245.368099 86.20952414 247.29907659 85.66015625 249.23046875 C85.41402588 250.07504639 85.16789551 250.91962402 84.91430664 251.78979492 C84.24669284 254.26224779 83.72399598 256.73391585 83.25 259.25 C97.7202673 237.90379008 98.81250606 215.26276955 98.25 190.25 C99.24 190.58 100.23 190.91 101.25 191.25 C101.9375 193.3125 101.9375 193.3125 102.25 195.25 C100.86521305 178.63255659 94.91605805 162.79161999 88.1328125 147.66796875 C87.25 145.25 87.25 145.25 87.25 141.25 C88.24 141.58 89.23 141.91 90.25 142.25 C88.87306914 137.64392164 86.96558964 133.58058013 84.5625 129.4375 C84.02967407 128.51457153 84.02967407 128.51457153 83.48608398 127.57299805 C80.47029762 122.44676614 77.06562093 117.8128467 73.25 113.25 C71.60393778 111.2293531 69.95811021 109.20851503 68.3125 107.1875 C66.95942487 105.54076917 65.60565115 103.8946108 64.25 102.25 C72.5580258 102.25 80.91906416 112.58659294 86.5 118.125 C92.08381965 123.79012802 97.27553603 129.31361407 101.25 136.25 C101.63349609 136.91338379 102.01699219 137.57676758 102.41210938 138.26025391 C108.49723632 148.90922606 113.1399206 159.38259177 116.25 171.25 C116.13652381 169.27013918 116.0089065 167.29108402 115.875 165.3125 C115.80539062 164.21035156 115.73578125 163.10820312 115.6640625 161.97265625 C115.52742188 161.07417969 115.39078125 160.17570313 115.25 159.25 C114.59 158.92 113.93 158.59 113.25 158.25 C112.77675087 156.15418242 112.31134462 154.05620975 111.890625 151.94921875 C110.77266924 147.2388076 108.98719447 142.76164583 107.25 138.25 C108.24 138.25 109.23 138.25 110.25 138.25 C111.63671875 139.78125 111.63671875 139.78125 112.9375 141.75 C113.37449219 142.3996875 113.81148438 143.049375 114.26171875 143.71875 C114.58785156 144.2240625 114.91398437 144.729375 115.25 145.25 C105.8150047 122.78572547 82.19666223 102.67793161 61.25 91.25 C61.25 90.59 61.25 89.93 61.25 89.25 C69.29736706 89.57189468 76.05022076 92.94335982 83.25 96.25 C68.34073563 83.41383334 45.91463766 78.72951304 27.25 74.25 C27.58 73.26 27.91 72.27 28.25 71.25 C31.715 70.755 31.715 70.755 35.25 70.25 C19.13522341 66.36859145 1.62798794 67.80107848 -14.75 69.25 C-14.75 68.59 -14.75 67.93 -14.75 67.25 C7.69840004 58.87323715 28.69938465 57.94878733 52.25 61.25 C39.79976891 57.40480119 28.06752473 54.86105038 14.9296875 55.375 C12.25 55.25 12.25 55.25 9.25 53.25 C15.84379663 50.95438191 22.49947898 49.02910928 29.25 47.25 C9.09399609 48.54606234 -7.12017491 54.45640678 -25.06445312 63.51904297 C-26.75 64.25 -26.75 64.25 -28.75 64.25 C-27.4475667 61.34457188 -26.04113732 59.4407039 -23.75 57.25 C-30.91676441 61.45814022 -37.21159099 66.10522841 -43.4206543 71.60473633 C-45.86947407 73.75601825 -47.62027545 75.20675848 -50.75 76.25 C-50.75 76.91 -50.75 77.57 -50.75 78.25 C-52.38432755 79.72769218 -54.08476368 81.13269319 -55.8125 82.5 C-56.81410156 83.30308594 -57.81570312 84.10617188 -58.84765625 84.93359375 C-59.80542969 85.69800781 -60.76320313 86.46242188 -61.75 87.25 C-65.57407881 90.37630414 -68.82491684 93.24725463 -71.75 97.25 C-72.41 97.25 -73.07 97.25 -73.75 97.25 C-72.03558348 82.91319182 -60.85158656 70.83355648 -50.75 61.25 C-51.74 61.25 -52.73 61.25 -53.75 61.25 C-53.75 61.91 -53.75 62.57 -53.75 63.25 C-55.14720163 64.40473714 -56.59587889 65.49731795 -58.0625 66.5625 C-74.44833676 79.40232117 -85.24032752 98.72098255 -91.75 118.25 C-92.41 118.25 -93.07 118.25 -93.75 118.25 C-93.99975621 112.67455983 -93.17181624 108.0331999 -91.625 102.6875 C-91.2839624 101.50232788 -91.2839624 101.50232788 -90.93603516 100.29321289 C-81.92152001 69.90220795 -61.60679167 45.60809482 -34.75 29.25 C-33.70328125 28.60160156 -32.6565625 27.95320313 -31.578125 27.28515625 C-18.84298652 19.89942238 -4.35045323 15.77033445 10.25 14.25 C10.25 15.24 10.25 16.23 10.25 17.25 C7.28 18.57 4.31 19.89 1.25 21.25 C2.50554687 21.04503906 3.76109375 20.84007813 5.0546875 20.62890625 C23.51397596 17.64273638 23.51397596 17.64273638 30.25 17.25 C31.40628906 17.17072266 31.40628906 17.17072266 32.5859375 17.08984375 C53.98469265 16.33265703 75.59973927 23.22192657 93.25 35.25 C93.25 35.91 93.25 36.57 93.25 37.25 C88.04166667 36.72916667 82.83333333 36.20833333 77.625 35.6875 C76.78710938 35.60371094 75.94921875 35.51992187 75.0859375 35.43359375 C74.17714844 35.34271484 74.17714844 35.34271484 73.25 35.25 C73.91902344 35.4459375 74.58804688 35.641875 75.27734375 35.84375 C87.31058588 39.59101466 99.36944036 44.65206098 109.5859375 52.12109375 C111.36820809 53.43990585 111.36820809 53.43990585 114.25 54.25 C114.25 54.91 114.25 55.57 114.25 56.25 C114.99475586 56.5082959 115.73951172 56.7665918 116.50683594 57.03271484 C124.68217687 60.66054057 129.56304714 69.24789766 134 76.625 C134.82564453 77.94757813 134.82564453 77.94757813 135.66796875 79.296875 C139.20013123 85.07369709 141.95003656 90.88311164 144.25 97.25 C141.25 97.25 141.25 97.25 138.68359375 94.90625 C137.67910344 93.85969561 136.68074451 92.80723328 135.6875 91.75 C130.58023511 86.47525814 125.35383544 81.38407181 119.25 77.25 C118.59 77.25 117.93 77.25 117.25 77.25 C117.96542969 77.96800781 118.68085938 78.68601562 119.41796875 79.42578125 C144.20142409 104.92009944 158.79107333 136.08898141 158.40356445 171.88476562 C158.36279162 174.34024244 158.31292382 176.79500302 158.25 179.25 C157.26 179.25 156.27 179.25 155.25 179.25 C155.0166394 178.34459473 155.0166394 178.34459473 154.77856445 177.42089844 C151.90746937 166.36639217 149.06162506 155.63772514 144.25 145.25 C144.39622803 145.88502441 144.54245605 146.52004883 144.69311523 147.17431641 C145.35975869 150.07412287 146.02365226 152.9745523 146.6875 155.875 C147.03264648 157.37353516 147.03264648 157.37353516 147.38476562 158.90234375 C147.60712891 159.87558594 147.82949219 160.84882813 148.05859375 161.8515625 C148.26282959 162.74182129 148.46706543 163.63208008 148.67749023 164.54931641 C154.31355644 191.1361669 150.80047243 221.84173296 136.77734375 245.2265625 C135.15153081 247.38045279 133.47741513 248.74589602 131.25 250.25 C130.07323129 246.71969386 130.51561138 245.74293644 131.5625 242.25 C133.8517871 233.72293063 134.47049814 225.01710325 135.25 216.25 C135.11013672 216.85247559 134.97027344 217.45495117 134.82617188 218.07568359 C130.87479415 234.81186467 126.15303399 253.4302308 115.25 267.25 C114.59 267.25 113.93 267.25 113.25 267.25 C112.9096875 268.301875 112.9096875 268.301875 112.5625 269.375 C110.91158712 272.99128535 108.9591165 275.33769976 106.25 278.25 C105.59 278.25 104.93 278.25 104.25 278.25 C103.92 278.91 103.59 279.57 103.25 280.25 C102.05557765 276.66673295 102.78955925 275.62515432 104.39819336 272.36157227 C104.72053955 271.72662842 105.04288574 271.09168457 105.375 270.4375 C108.91462525 263.20249532 111.69645381 255.88710357 114.25 248.25 C112.85110599 249.64889401 112.22249024 251.23372774 111.3515625 253.01171875 C98.41439381 278.89138555 77.92161275 302.22602342 50.078125 312.41015625 C47.81093723 313.09863841 45.56049402 313.72810017 43.25 314.25 C43.58 313.26 43.91 312.27 44.25 311.25 C43.59515625 311.56453125 42.9403125 311.8790625 42.265625 312.203125 C28.98606238 318.43026453 16.29574327 322.07603521 1.6875 322.9375 C0.50015259 323.01037231 0.50015259 323.01037231 -0.71118164 323.0847168 C-6.17758106 323.35047209 -11.3242792 322.97089997 -16.75 322.25 C-16.75 321.59 -16.75 320.93 -16.75 320.25 C-16.1422876 320.1048999 -15.5345752 319.9597998 -14.90844727 319.81030273 C6.58097507 314.87902319 6.58097507 314.87902319 26.25 305.25 C22.29 305.58 18.33 305.91 14.25 306.25 C15.62788026 302.11635923 18.42052936 301.1972647 22.0625 299.25 C27.87124449 296.0871639 27.87124449 296.0871639 33.25 292.25 C27.86294501 294.89681893 22.49180805 297.55201317 17.23046875 300.44140625 C3.39830169 308.01747069 -10.10443386 313.60348632 -25.75 316.25 C-26.66265625 316.4046875 -27.5753125 316.559375 -28.515625 316.71875 C-34.31266622 317.54155585 -34.31266622 317.54155585 -37.75 315.25 C-36.81027344 314.83427734 -36.81027344 314.83427734 -35.8515625 314.41015625 C-35.03429687 314.04792969 -34.21703125 313.68570312 -33.375 313.3125 C-32.56289062 312.95285156 -31.75078125 312.59320313 -30.9140625 312.22265625 C-29.51316215 311.5930097 -28.12374716 310.93687358 -26.75 310.25 C-28.07 309.92 -29.39 309.59 -30.75 309.25 C-31.08 309.91 -31.41 310.57 -31.75 311.25 C-32.08 310.92 -32.41 310.59 -32.75 310.25 C-34.62134738 310.18668942 -36.49504047 310.19080147 -38.3671875 310.22265625 C-39.5325 310.23490234 -40.6978125 310.24714844 -41.8984375 310.25976562 C-44.34381715 310.29437005 -46.78914035 310.33328822 -49.234375 310.37695312 C-60.31428113 310.47999383 -69.70015192 309.24737813 -79.75 304.5 C-80.52762695 304.14147949 -81.30525391 303.78295898 -82.10644531 303.41357422 C-92.39587176 298.6199775 -101.6365827 293.12257388 -110.78125 286.421875 C-112.74035675 284.98863375 -114.73027958 283.59648028 -116.75 282.25 C-116.75 281.59 -116.75 280.93 -116.75 280.25 C-117.74 279.92 -118.73 279.59 -119.75 279.25 C-120.4375 277.1875 -120.4375 277.1875 -120.75 275.25 C-117.04527417 275.8665523 -113.92957633 276.91884019 -110.51171875 278.46484375 C-109.52623047 278.90376953 -108.54074219 279.34269531 -107.52539062 279.79492188 C-105.47799863 280.71825552 -103.43111729 281.64272238 -101.38476562 282.56835938 C-95.87315456 285.020757 -90.65964657 287.01441081 -84.75 288.25 C-85.24177734 288.00991211 -85.73355469 287.76982422 -86.24023438 287.52246094 C-104.71073631 278.40725966 -120.35163383 267.0375112 -134.75 252.25 C-135.63171875 251.41855469 -135.63171875 251.41855469 -136.53125 250.5703125 C-139.88992402 247.36305412 -142.49048923 244.86820616 -143.75 240.25 C-144.41 240.25 -145.07 240.25 -145.75 240.25 C-146.89501953 238.81298828 -146.89501953 238.81298828 -148.1328125 236.8203125 C-148.57753906 236.10746094 -149.02226562 235.39460937 -149.48046875 234.66015625 C-149.94066406 233.90605469 -150.40085937 233.15195312 -150.875 232.375 C-151.34292969 231.62863281 -151.81085938 230.88226563 -152.29296875 230.11328125 C-155.75 224.51954264 -155.75 224.51954264 -155.75 222.25 C-152.80043472 223.61944102 -150.22531189 225.12830409 -147.75 227.25 C-147.75 227.91 -147.75 228.57 -147.75 229.25 C-147.19570312 229.48332031 -146.64140625 229.71664062 -146.0703125 229.95703125 C-143.15306685 231.58263447 -141.04351245 233.63532999 -138.625 235.9375 C-130.06072535 243.95200874 -130.06072535 243.95200874 -119.75 249.25 C-120.33233398 248.82485107 -120.91466797 248.39970215 -121.51464844 247.96166992 C-146.15928112 229.09059962 -162.5221202 201.11758794 -169.75 171.25 C-169.96269531 170.41855469 -170.17539063 169.58710938 -170.39453125 168.73046875 C-173.87109336 153.6486921 -173.61236809 137.18448994 -169.75 122.25 C-169.09 122.25 -168.43 122.25 -167.75 122.25 C-166.6047323 124.5405354 -166.44297986 126.26291915 -166.171875 128.80859375 C-164.2610557 145.62032406 -161.74386685 162.11267767 -153.75 177.25 C-154.01554687 176.36699219 -154.28109375 175.48398438 -154.5546875 174.57421875 C-164.4282957 141.02557191 -163.0467967 105.54906229 -146.75 74.25 C-142.27832483 66.26688731 -137.12130173 58.84665323 -130.75 52.25 C-129.41989014 55.27367997 -129.83906468 56.5313064 -130.859375 59.75390625 C-131.3977891 61.11016032 -131.94515163 62.46288593 -132.5 63.8125 C-133.06288185 65.26056158 -133.62277945 66.70978673 -134.1796875 68.16015625 C-134.45135742 68.86414551 -134.72302734 69.56813477 -135.00292969 70.29345703 C-140.32582813 84.23388451 -139.52321845 97.78964667 -136.75 112.25 C-136.65203125 111.00347656 -136.5540625 109.75695312 -136.453125 108.47265625 C-133.97599881 79.37935514 -133.97599881 79.37935514 -126.75 67.25 C-123.91977903 71.24560608 -124.98789554 74.67737323 -125.75 79.25 C-125.42128906 78.2084375 -125.09257813 77.166875 -124.75390625 76.09375 C-120.16126714 62.05665068 -114.01226733 49.47500469 -104.37890625 38.16796875 C-102.59363653 36.1409232 -102.59363653 36.1409232 -100.75 33.25 C-100.09 33.25 -99.43 33.25 -98.75 33.25 C-98.53085938 32.69699219 -98.31171875 32.14398438 -98.0859375 31.57421875 C-96.3051197 28.47601234 -94.01745669 26.46054716 -91.375 24.0625 C-89.94027344 22.74185547 -89.94027344 22.74185547 -88.4765625 21.39453125 C-86.04282937 19.48031995 -84.76030685 18.61380486 -81.75 18.25 C-81.75 19.24 -81.75 20.23 -81.75 21.25 C-81.12996094 20.75371094 -80.50992188 20.25742187 -79.87109375 19.74609375 C-69.35541767 11.67948343 -55.34749797 3.25 -41.75 3.25 C-41.75 3.91 -41.75 4.57 -41.75 5.25 C-42.41 5.25 -43.07 5.25 -43.75 5.25 C-43.75 5.91 -43.75 6.57 -43.75 7.25 C-45.72946592 8.61363208 -47.7319245 9.94418644 -49.75 11.25 C-50.77089895 12.22865486 -51.77665276 13.2240394 -52.75 14.25 C-51.86441406 13.80269531 -50.97882813 13.35539062 -50.06640625 12.89453125 C-34.22621476 5.08812109 -17.75179623 0.1788255 0 0 Z M-48.75 58.25 C-49.08 58.91 -49.41 59.57 -49.75 60.25 C-48.76 59.92 -47.77 59.59 -46.75 59.25 C-47.41 58.92 -48.07 58.59 -48.75 58.25 Z M110.25 71.25 C111.24 72.735 111.24 72.735 112.25 74.25 C113.24 73.92 114.23 73.59 115.25 73.25 C112.775 72.26 112.775 72.26 110.25 71.25 Z M115.25 74.25 C114.92 74.91 114.59 75.57 114.25 76.25 C114.91 76.25 115.57 76.25 116.25 76.25 C115.92 75.59 115.59 74.93 115.25 74.25 Z M84.25 97.25 C86.87198774 99.40377564 88.89404172 100.65072174 92.25 101.25 C90.50065102 99.16666921 90.50065102 99.16666921 88.25 97.25 C86.93 97.25 85.61 97.25 84.25 97.25 Z M141.25 139.25 C141.91 140.57 142.57 141.89 143.25 143.25 C142.92 141.93 142.59 140.61 142.25 139.25 C141.92 139.25 141.59 139.25 141.25 139.25 Z M91.25 143.25 C92.25 145.25 92.25 145.25 92.25 145.25 Z M116.25 146.25 C116.58 147.24 116.91 148.23 117.25 149.25 C117.25 148.26 117.25 147.27 117.25 146.25 C116.92 146.25 116.59 146.25 116.25 146.25 Z M-124.75 171.25 C-123.75 173.25 -123.75 173.25 -123.75 173.25 Z M-152.75 180.25 C-151.75 182.25 -151.75 182.25 -151.75 182.25 Z M-151.75 182.25 C-150.75 184.25 -150.75 184.25 -150.75 184.25 Z M103.25 198.25 C104.25 202.25 104.25 202.25 104.25 202.25 Z M79.25 264.25 C80.25 266.25 80.25 266.25 80.25 266.25 Z " fill="#020202" transform="translate(236.75,28.75)"/>
<path d="M0 0 C-0.33 0.99 -0.66 1.98 -1 3 C-3.39666001 4.10819668 -5.71007473 5.05220206 -8.1875 5.9375 C-13.30170044 7.78859109 -17.57278877 9.81213251 -22 13 C-21.34515625 12.73445313 -20.6903125 12.46890625 -20.015625 12.1953125 C-9.24504778 8.02703826 1.43128111 6.18981285 13 7 C13.99 7.495 13.99 7.495 15 8 C15 8.66 15 9.32 15 10 C13.35 10 11.7 10 10 10 C10 10.66 10 11.32 10 12 C11.15886719 11.96648437 12.31773437 11.93296875 13.51171875 11.8984375 C17.75447596 11.90403604 21.71055226 12.57041585 25.8125 13.625 C26.50682129 13.80321289 27.20114258 13.98142578 27.91650391 14.16503906 C41.9898009 18.01297731 54.32509814 27.32038353 63 39 C63 39.66 63 40.32 63 41 C57.87150854 39.65039698 53.87170502 37.15921308 49.4140625 34.3984375 C46.70201316 32.82737979 44.02957877 31.79725757 41 31 C41.52207031 31.30550781 42.04414063 31.61101562 42.58203125 31.92578125 C53.57174036 38.75826239 61.69891002 47.76161759 68 59 C68.59748047 59.99580078 68.59748047 59.99580078 69.20703125 61.01171875 C75.53675431 72.31987567 77.18747525 87.36125409 75 100 C74.01 99.67 73.02 99.34 72 99 C71.25909761 96.54141372 70.69160381 94.19544504 70.1875 91.6875 C68.49983209 84.08101298 65.86431306 77.80119098 62 71 C62.27714844 71.9178125 62.55429687 72.835625 62.83984375 73.78125 C66.55868832 86.38032485 66.55868832 86.38032485 67 93 C67.0515625 93.74121094 67.103125 94.48242188 67.15625 95.24609375 C67.55214856 105.55595198 64.42390727 115.38045101 61 125 C60.34 125 59.68 125 59 125 C58.67 122.36 58.34 119.72 58 117 C57.84144531 117.83402344 57.68289063 118.66804688 57.51953125 119.52734375 C54.25330277 135.2810314 46.4390345 145.67533179 33.1640625 154.8203125 C31 156 31 156 28 156 C30.02425172 151.48436156 33.02640248 147.60126771 35.8984375 143.6015625 C38.24094682 140.59528996 38.24094682 140.59528996 39 137 C38.27296875 137.96099609 38.27296875 137.96099609 37.53125 138.94140625 C26.46488789 153.22126967 13.1166322 161.54337008 -5 164 C-10.67137462 164.38968096 -16.32560923 164.25281939 -22 164 C-18.65771026 160.65771026 -13.8079212 159.76571008 -9.38476562 158.29882812 C-5.26967534 156.900913 -1.64380206 155.43647443 2 153 C1.27554688 153.20496094 0.55109375 153.40992188 -0.1953125 153.62109375 C-1.16210938 153.89050781 -2.12890625 154.15992188 -3.125 154.4375 C-4.07632813 154.70433594 -5.02765625 154.97117187 -6.0078125 155.24609375 C-11.44623971 156.61635021 -16.51506374 157.13711649 -22.125 157.125 C-23.92324219 157.12886719 -23.92324219 157.12886719 -25.7578125 157.1328125 C-28.38724796 157.02510069 -30.50841473 156.78094464 -33 156 C-33 155.34 -33 154.68 -33 154 C-31.68 153.67 -30.36 153.34 -29 153 C-29.96679688 152.84144531 -30.93359375 152.68289063 -31.9296875 152.51953125 C-49.41457754 149.46654247 -62.0533198 141.07430311 -73 127 C-73 126.34 -73 125.68 -73 125 C-68.76570244 126.31061591 -64.92592596 127.94356259 -61 130 C-61.58007812 129.50371094 -62.16015625 129.00742188 -62.7578125 128.49609375 C-73.43995181 119.20651055 -73.43995181 119.20651055 -76 115 C-76 113 -76 111 -76 109 C-77.33132722 106.44828949 -78.8641348 104.07018385 -80.40625 101.640625 C-90.35987737 85.14883064 -88.9428794 67.08004284 -85 49 C-84.67 48.34 -84.34 47.68 -84 47 C-83.01 47.33 -82.02 47.66 -81 48 C-80.95101562 49.19496094 -80.90203125 50.38992187 -80.8515625 51.62109375 C-80.31943461 63.431805 -80.31943461 63.431805 -78 75 C-78.03480469 74.09121094 -78.06960937 73.18242187 -78.10546875 72.24609375 C-78.54059795 52.04366666 -73.20257174 33.66538689 -59.63671875 18.328125 C-57.80254906 16.49069746 -55.95113522 14.7118952 -54 13 C-53.28515625 14.546875 -53.28515625 14.546875 -53 17 C-54.05391226 19.53857885 -55.13965574 21.84495527 -56.4375 24.25 C-56.77587891 24.8996875 -57.11425781 25.549375 -57.46289062 26.21875 C-58.29786887 27.81814494 -59.14753114 29.40985859 -60 31 C-59.51789063 30.3503125 -59.03578125 29.700625 -58.5390625 29.03125 C-57.90742188 28.1959375 -57.27578125 27.360625 -56.625 26.5 C-55.99851563 25.6646875 -55.37203125 24.829375 -54.7265625 23.96875 C-54.15679687 23.3190625 -53.58703125 22.669375 -53 22 C-52.34 22 -51.68 22 -51 22 C-50.73445313 21.40703125 -50.46890625 20.8140625 -50.1953125 20.203125 C-44.92516637 10.48952233 -31.49083019 5.17084622 -21.49609375 1.828125 C-14.30393646 -0.00669732 -7.39623621 -0.3598169 0 0 Z M60 67 C61 69 61 69 61 69 Z M-77 78 C-76 81 -76 81 -76 81 Z M-76 82 C-75 84 -75 84 -75 84 Z " fill="#010101" transform="translate(238,105)"/>
<path d="M0 0 C13 0 13 0 16.421875 2.703125 C17.6484375 4.42578125 17.6484375 4.42578125 18.75 6.25 C19.15992188 6.83652344 19.56984375 7.42304688 19.9921875 8.02734375 C21.93867079 10.89550622 23.48680361 13.54447762 24 17 C27.96095761 13.43602033 30.48353153 9.14553636 32.85351562 4.42578125 C33.90234375 2.703125 33.90234375 2.703125 37 0 C41.29 0 45.58 0 50 0 C50 11.88 50 23.76 50 36 C46.7 36 43.4 36 40 36 C39.67 29.4 39.34 22.8 39 16 C36.12325187 20.22994388 36.12325187 20.22994388 33.25634766 24.46655273 C30.5990622 28.3396324 29.44905676 29.65222638 24.875 30.75 C19.21225923 29.65398566 17.64232699 26.21093186 14.50390625 21.6015625 C13 19 13 19 13 17 C12.34 17 11.68 17 11 17 C11.01160156 18.28777344 11.02320313 19.57554687 11.03515625 20.90234375 C11.0445327 22.58072772 11.05363305 24.25911326 11.0625 25.9375 C11.07087891 26.78763672 11.07925781 27.63777344 11.08789062 28.51367188 C11.09111328 29.32255859 11.09433594 30.13144531 11.09765625 30.96484375 C11.10289307 31.7137085 11.10812988 32.46257324 11.11352539 33.23413086 C11 35 11 35 10 36 C6.7 36 3.4 36 0 36 C0 24.12 0 12.24 0 0 Z " fill="#050505" transform="translate(195,379)"/>
<path d="M0 0 C5.341875 -0.061875 10.68375 -0.12375 16.1875 -0.1875 C17.86481201 -0.21481201 19.54212402 -0.24212402 21.27026367 -0.27026367 C22.61115806 -0.27903182 23.95206047 -0.28667498 25.29296875 -0.29296875 C26.32339294 -0.3159906 26.32339294 -0.3159906 27.37463379 -0.33947754 C32.75786328 -0.34239317 35.91000609 0.98464873 39.75 4.6875 C41.5560544 8.02870064 42.11216861 11.24936207 42 15 C40.43034822 20.23217261 38.51861269 22.94688332 34 26 C34.6496875 26.63808594 35.299375 27.27617187 35.96875 27.93359375 C36.8040625 28.75988281 37.639375 29.58617187 38.5 30.4375 C39.3353125 31.26121094 40.170625 32.08492188 41.03125 32.93359375 C43 35 43 35 43 36 C37.37576501 36.98670789 33.36648947 37.39575423 28 35 C26.67125751 33.68219366 25.38211345 32.32380297 24.125 30.9375 C21.17451002 27.73824322 19.36259538 26.44446505 15 26 C13.68 26 12.36 26 11 26 C11 29.3 11 32.6 11 36 C7.37 36 3.74 36 0 36 C0 24.12 0 12.24 0 0 Z M11 10 C11 12.31 11 14.62 11 17 C16.94 17 22.88 17 29 17 C29.33 14.69 29.66 12.38 30 10 C27.58373582 9.80465526 25.16734771 9.61846596 22.75 9.4375 C22.06808594 9.38142578 21.38617188 9.32535156 20.68359375 9.26757812 C17.2579419 9.01813746 14.27298823 8.86120255 11 10 Z " fill="#040404" transform="translate(269,379)"/>
<path d="M0 0 C4.31402132 6.47103198 3.79473671 14.21491019 3.20703125 21.67578125 C2.3812892 25.59389959 1.06528577 28.41729758 -2.25 30.765625 C-13.33558092 35.57481084 -24.63304124 35.2898006 -35.9375 31.125 C-39.66973099 28.54114778 -40.966766 25.662202 -42.375 21.4375 C-42.90750602 13.95169416 -43.11713847 7.07677793 -39.375 0.4375 C-29.5521376 -7.85736158 -10.26409278 -6.75269262 0 0 Z M-29.375 6.4375 C-31.49834287 9.6225143 -31.69446711 10.68206307 -31.75 14.375 C-31.77835938 15.22964844 -31.80671875 16.08429688 -31.8359375 16.96484375 C-31.1969816 20.39246314 -30.24606531 21.4616645 -27.375 23.4375 C-24.53279388 23.78360972 -22.13554569 23.90905782 -19.3125 23.8125 C-18.59255859 23.81121094 -17.87261719 23.80992187 -17.13085938 23.80859375 C-13.37240478 23.74577835 -11.56698512 23.56549008 -8.375 21.4375 C-6.85046782 16.32162021 -6.97385865 11.2397827 -9.375 6.4375 C-12.87595311 5.27051563 -15.6872232 5.30481713 -19.375 5.3125 C-20.6125 5.30992187 -21.85 5.30734375 -23.125 5.3046875 C-26.38730773 5.28758698 -26.38730773 5.28758698 -29.375 6.4375 Z " fill="#040404" transform="translate(140.375,382.5625)"/>
<path d="M0 0 C5.32125 -0.0825 10.6425 -0.165 16.125 -0.25 C17.79320801 -0.28641602 19.46141602 -0.32283203 21.18017578 -0.36035156 C22.51854164 -0.37204587 23.85692184 -0.38223594 25.1953125 -0.390625 C25.877146 -0.41108887 26.55897949 -0.43155273 27.26147461 -0.45263672 C32.30635538 -0.45628055 35.10672235 0.85631646 39 4 C41.93892089 8.20934779 41.5114627 13.06917986 41 18 C39.57905405 21.58975819 38.77448129 22.62176495 35.3125 24.3125 C34.549375 24.539375 33.78625 24.76625 33 25 C33 25.66 33 26.32 33 27 C33.66 27 34.32 27 35 27 C35 27.66 35 28.32 35 29 C35.66 29 36.32 29 37 29 C37 29.66 37 30.32 37 31 C37.639375 31.268125 38.27875 31.53625 38.9375 31.8125 C41 33 41 33 42 36 C29.88117593 37.39633677 29.88117593 37.39633677 25.34765625 34.03125 C23.88274068 32.40413815 22.44665947 30.75052765 21.04296875 29.0703125 C18.76233213 26.75915111 17.61714338 26.28154518 14.4375 25.9375 C12.7359375 25.9684375 12.7359375 25.9684375 11 26 C11 29.3 11 32.6 11 36 C7.37 36 3.74 36 0 36 C0 24.12 0 12.24 0 0 Z M11 9 C10.07461831 12.70152678 9.91825838 13.63458162 11 17 C13.79192205 17.05380578 16.5828141 17.09357669 19.375 17.125 C20.1690625 17.14175781 20.963125 17.15851563 21.78125 17.17578125 C23.85492015 17.19335473 25.92883241 17.10335168 28 17 C28.66 16.34 29.32 15.68 30 15 C29.67 13.35 29.34 11.7 29 10 C23.06 9.67 17.12 9.34 11 9 Z " fill="#040404" transform="translate(149,379)"/>
<path d="M0 0 C1.46156415 0.02009023 2.92315486 0.03833656 4.38476562 0.0546875 C7.94456774 0.09849664 11.50336254 0.16738454 15.0625 0.25 C15.90312397 3.34773244 16.15185201 6.03332751 16.0625 9.25 C12.93908291 10.29113903 10.8594536 10.33746769 7.58984375 10.27734375 C5.99366211 10.25897461 5.99366211 10.25897461 4.36523438 10.24023438 C2.11777502 10.20501592 -0.12962713 10.16593974 -2.37695312 10.12304688 C-3.43978516 10.11208984 -4.50261719 10.10113281 -5.59765625 10.08984375 C-6.57355713 10.07300537 -7.54945801 10.05616699 -8.55493164 10.03881836 C-11.12517439 10.0097311 -11.12517439 10.0097311 -12.9375 12.25 C-9.87513689 13.2707877 -7.84963221 13.35194652 -4.6484375 13.3125 C-3.62492187 13.30476563 -2.60140625 13.29703125 -1.546875 13.2890625 C-0.47953125 13.27617187 0.5878125 13.26328125 1.6875 13.25 C3.80463781 13.22461465 5.92183326 13.20353962 8.0390625 13.1875 C8.97830566 13.17589844 9.91754883 13.16429687 10.88525391 13.15234375 C13.0625 13.25 13.0625 13.25 14.0625 14.25 C14.20365161 16.92058851 14.10497107 19.57432238 14.0625 22.25 C10.56257304 23.04706768 7.3482769 23.36863027 3.76171875 23.34765625 C2.78525391 23.34443359 1.80878906 23.34121094 0.80273438 23.33789062 C-0.20466797 23.32951172 -1.21207031 23.32113281 -2.25 23.3125 C-3.27673828 23.30798828 -4.30347656 23.30347656 -5.36132812 23.29882812 C-7.88677882 23.28708184 -10.41210905 23.27065565 -12.9375 23.25 C-12.9375 24.24 -12.9375 25.23 -12.9375 26.25 C0.9225 26.745 0.9225 26.745 15.0625 27.25 C16.0625 34.25 16.0625 34.25 15.0625 36.25 C10.73921196 36.3244013 6.41626745 36.37871968 2.0925293 36.41479492 C0.62306218 36.42984066 -0.84636034 36.45028238 -2.31567383 36.47631836 C-4.4332177 36.51288955 -6.55016565 36.52976801 -8.66796875 36.54296875 C-9.94051514 36.5586792 -11.21306152 36.57438965 -12.52416992 36.59057617 C-17.13350873 36.13066432 -19.55836876 34.68831739 -22.72949219 31.38110352 C-24.20304219 28.7815445 -24.29717434 27.12858874 -24.265625 24.15234375 C-24.26046875 23.18619141 -24.2553125 22.22003906 -24.25 21.22460938 C-24.229375 20.22236328 -24.20875 19.22011719 -24.1875 18.1875 C-24.18234375 17.18138672 -24.1771875 16.17527344 -24.171875 15.13867188 C-24.09253149 7.71509446 -24.09253149 7.71509446 -22.9375 4.25 C-16.3036254 -1.36405522 -8.20808695 -0.19624613 0 0 Z " fill="#030303" transform="translate(338.9375,378.75)"/>
<path d="M0 0 C11.4981073 -1.0747489 11.4981073 -1.0747489 15.12890625 1.5234375 C16.5640532 3.28589867 17.76987644 5.09307983 19 7 C19.66 7.33 20.32 7.66 21 8 C21.33 8.99 21.66 9.98 22 11 C23.31514604 9.54405245 24.62703717 8.08516421 25.9375 6.625 C26.66839844 5.81289063 27.39929688 5.00078125 28.15234375 4.1640625 C30.02989471 2.14075833 30.02989471 2.14075833 31 0 C35.62 0 40.24 0 45 0 C43.47246003 3.05507993 42.19136095 5.44341223 40 8 C39.34 8 38.68 8 38 8 C37.7525 8.556875 37.505 9.11375 37.25 9.6875 C35.78393985 12.39971127 33.97010529 14.63587365 32 17 C33.2913857 19.82543249 34.66786768 21.92988819 36.8203125 24.1640625 C37.35527344 24.72867187 37.89023437 25.29328125 38.44140625 25.875 C39.57146063 27.04962729 40.70167106 28.22410449 41.83203125 29.3984375 C46 33.79852073 46 33.79852073 46 36 C35.84037179 38.01499293 35.84037179 38.01499293 31.421875 35.578125 C29.39789146 33.81624005 27.61550629 32.14292159 26 30 C26 29.34 26 28.68 26 28 C25.34 28 24.68 28 24 28 C23.34 27.34 22.68 26.68 22 26 C21.34 26 20.68 26 20 26 C19.6596875 26.804375 19.6596875 26.804375 19.3125 27.625 C18.879375 28.40875 18.44625 29.1925 18 30 C17.4225 31.0725 16.845 32.145 16.25 33.25 C14.11049665 35.85404383 12.9919494 36.00089553 9.55859375 36.3828125 C6.02077535 36.3756726 2.52788996 36.25778898 -1 36 C0.64955638 31.91068059 3.57403316 29.02035178 6.5625 25.875 C10.18633907 22.23596593 10.18633907 22.23596593 13 18 C11.58611621 16.24775086 10.16877217 14.49829345 8.75 12.75 C7.96109375 11.77546875 7.1721875 10.8009375 6.359375 9.796875 C4.10340927 7.01630105 4.10340927 7.01630105 1.703125 4.828125 C0 3 0 3 0 0 Z " fill="#050505" transform="translate(357,379)"/>
<path d="M0 0 C1.65322266 0.01740234 1.65322266 0.01740234 3.33984375 0.03515625 C4.99693359 0.04869141 4.99693359 0.04869141 6.6875 0.0625 C7.54214844 0.07410156 8.39679687 0.08570313 9.27734375 0.09765625 C10.52869552 2.43027315 11.77844708 4.76372524 13.02734375 7.09765625 C13.37539062 7.74605469 13.7234375 8.39445312 14.08203125 9.0625 C16.56257708 13.70203943 18.94137076 18.38362066 21.27734375 23.09765625 C21.880625 22.02386719 22.48390625 20.95007813 23.10546875 19.84375 C23.91274748 18.40754481 24.72003988 16.97134731 25.52734375 15.53515625 C25.92308594 14.83068359 26.31882812 14.12621094 26.7265625 13.40039062 C29.22544354 8.95565959 31.74251093 4.52198601 34.27734375 0.09765625 C37.90734375 0.09765625 41.53734375 0.09765625 45.27734375 0.09765625 C44.40855163 4.44161684 43.47983887 7.01211887 41.4765625 10.84375 C40.91130859 11.92849609 40.34605469 13.01324219 39.76367188 14.13085938 C39.17005859 15.25427734 38.57644531 16.37769531 37.96484375 17.53515625 C37.38283203 18.65470703 36.80082031 19.77425781 36.20117188 20.92773438 C34.5902071 24.00188573 32.94147549 27.05205242 31.27734375 30.09765625 C30.92333496 30.79342773 30.56932617 31.48919922 30.20458984 32.20605469 C29.28125 33.859375 29.28125 33.859375 27.27734375 36.09765625 C24.04296875 36.68359375 24.04296875 36.68359375 20.52734375 36.47265625 C18.77164063 36.39144531 18.77164063 36.39144531 16.98046875 36.30859375 C16.0884375 36.23898437 15.19640625 36.169375 14.27734375 36.09765625 C14.03242187 35.59621094 13.7875 35.09476562 13.53515625 34.578125 C10.09382514 27.61239616 6.47796048 20.74236872 2.84423828 13.87573242 C0.60475972 9.63978255 -1.60200316 5.39440433 -3.72265625 1.09765625 C-2.72265625 0.09765625 -2.72265625 0.09765625 0 0 Z " fill="#040404" transform="translate(52.72265625,378.90234375)"/>
<path d="M0 0 C3.63 0 7.26 0 11 0 C11 11.88 11 23.76 11 36 C7.37 36 3.74 36 0 36 C0 24.12 0 12.24 0 0 Z " fill="#020202" transform="translate(252,379)"/>
<path d="M0 0 C0.495 0.391875 0.99 0.78375 1.5 1.1875 C0.84 2.1775 0.18 3.1675 -0.5 4.1875 C-0.005 5.1775 -0.005 5.1775 0.5 6.1875 C0.83 5.5275 1.16 4.8675 1.5 4.1875 C2.5209375 4.4659375 2.5209375 4.4659375 3.5625 4.75 C7.07232191 5.27273943 10.02188063 4.80128577 13.5 4.1875 C7.29953342 10.38796658 -7.14152091 10.5599049 -15.5 11 C-16.26368896 11.04068604 -17.02737793 11.08137207 -17.81420898 11.12329102 C-23.1391636 11.32162519 -28.21692735 10.8740898 -33.5 10.1875 C-33.5 9.5275 -33.5 8.8675 -33.5 8.1875 C-32.84515625 8.02145264 -32.1903125 7.85540527 -31.515625 7.68432617 C-28.50921469 6.91918838 -25.50461752 6.14714654 -22.5 5.375 C-21.47003906 5.11396484 -20.44007813 4.85292969 -19.37890625 4.58398438 C-14.78810898 3.39973412 -10.31590961 2.18942687 -5.90625 0.4375 C-2.5 -0.8125 -2.5 -0.8125 0 0 Z " fill="#090808" transform="translate(253.5,340.8125)"/>
<path d="M0 0 C0 0.99 0 1.98 0 3 C1.32 3.66 2.64 4.32 4 5 C4 5.33 4 5.66 4 6 C-7.65831792 7.21909314 -19.29626135 8.32614838 -31 9 C-31 8.34 -31 7.68 -31 7 C-10.61469159 -0.20776087 -10.61469159 -0.20776087 0 0 Z " fill="#0E0D0F" transform="translate(253,89)"/>
<path d="M0 0 C0 0.66 0 1.32 0 2 C-0.66 2 -1.32 2 -2 2 C-2 2.66 -2 3.32 -2 4 C-3.36885601 4.92397781 -4.74386246 5.83984163 -6.14453125 6.71484375 C-9.06268395 8.73604846 -11.58382007 11.18323147 -14.16796875 13.609375 C-16 15 -16 15 -19 15 C-18.67 12.69 -18.34 10.38 -18 8 C-22.95 10.475 -22.95 10.475 -28 13 C-28.33 12.01 -28.66 11.02 -29 10 C-8.45205479 0 -8.45205479 0 0 0 Z " fill="#030303" transform="translate(195,32)"/>
<path d="M0 0 C0.66 0 1.32 0 2 0 C2.33 0.99 2.66 1.98 3 3 C1.5625 5.1875 1.5625 5.1875 0 7 C1.32 6.34 2.64 5.68 4 5 C3.42212906 10.60715392 1.34196193 15.13917996 -1 20.1875 C-1.73027219 21.78465123 -2.45948407 23.3822878 -3.1875 24.98046875 C-3.51105469 25.68067139 -3.83460938 26.38087402 -4.16796875 27.10229492 C-5.10242237 29.15506408 -5.10242237 29.15506408 -6 32 C-6.66 32 -7.32 32 -8 32 C-8.28283496 26.25157044 -7.29849443 21.50230762 -5.6875 16 C-5.36749023 14.84757813 -5.36749023 14.84757813 -5.04101562 13.671875 C-3.69028097 8.93019157 -2.0360216 4.48999484 0 0 Z " fill="#080809" transform="translate(151,115)"/>
<path d="M0 0 C0.84205836 2.37922307 1.14174203 3.59929592 0.28735352 6.01464844 C-0.09493408 6.7059082 -0.47722168 7.39716797 -0.87109375 8.109375 C-1.28037109 8.86347656 -1.68964844 9.61757812 -2.11132812 10.39453125 C-2.54896484 11.17183594 -2.98660156 11.94914063 -3.4375 12.75 C-3.87126953 13.54277344 -4.30503906 14.33554688 -4.75195312 15.15234375 C-5.82392454 17.10780809 -6.90678122 19.05635908 -8 21 C-8.66 21 -9.32 21 -10 21 C-10.33 21.66 -10.66 22.32 -11 23 C-11.66 22.34 -12.32 21.68 -13 21 C-13.45375 21.825 -13.9075 22.65 -14.375 23.5 C-15.179375 24.7375 -15.179375 24.7375 -16 26 C-16.66 26 -17.32 26 -18 26 C-14.93301649 15.55986421 -7.96538666 7.20274325 0 0 Z " fill="#040405" transform="translate(184,118)"/>
<path d="M0 0 C-0.33 0.99 -0.66 1.98 -1 3 C-3.41795188 4.13230917 -5.74870949 5.09557857 -8.25 6 C-13.69583782 8.00748971 -13.69583782 8.00748971 -18.796875 10.75 C-19.88742188 11.36875 -19.88742188 11.36875 -21 12 C-21.99 11.67 -22.98 11.34 -24 11 C-22.35 8.69 -20.7 6.38 -19 4 C-19.99 3.67 -20.98 3.34 -22 3 C-15.22460906 -0.90887939 -7.56495747 -0.11016928 0 0 Z " fill="#060609" transform="translate(238,105)"/>
<path d="M0 0 C1.32 0 2.64 0 4 0 C5.125 2.25 5.125 2.25 6 5 C4.77500095 8.42178505 2.83577366 10.22767149 0.0625 12.5 C-2.15041123 14.31996437 -3.92891607 15.90317584 -5.62890625 18.21875 C-6.08136719 18.8065625 -6.53382813 19.394375 -7 20 C-7.66 20 -8.32 20 -9 20 C-8.45914863 15.04970761 -6.91707516 11.52139502 -4.5 7.1875 C-3.8709375 6.04667969 -3.241875 4.90585938 -2.59375 3.73046875 C-1 1 -1 1 0 0 Z " fill="#080808" transform="translate(172,106)"/>
<path d="M0 0 C7.115625 -0.061875 7.115625 -0.061875 14.375 -0.125 C15.8707959 -0.14320801 17.3665918 -0.16141602 18.90771484 -0.18017578 C20.66656006 -0.18766846 20.66656006 -0.18766846 22.4609375 -0.1953125 C24.26763916 -0.21102295 24.26763916 -0.21102295 26.11083984 -0.22705078 C29 0 29 0 31 2 C21.43 2 11.86 2 2 2 C2 11.9 2 21.8 2 32 C1.01 32.495 1.01 32.495 0 33 C0 22.11 0 11.22 0 0 Z " fill="#0F0F0F" transform="translate(269,379)"/>
<path d="M0 0 C2.64 0 5.28 0 8 0 C8 11.88 8 23.76 8 36 C4.7 36 1.4 36 -2 36 C-2 35.67 -2 35.34 -2 35 C0.64 35 3.28 35 6 35 C6 24.11 6 13.22 6 2 C4.02 2 2.04 2 0 2 C0 1.34 0 0.68 0 0 Z " fill="#121212" transform="translate(255,379)"/>
<path d="M0 0 C0.99 0.33 1.98 0.66 3 1 C3.79956055 2.70239258 3.79956055 2.70239258 4.38671875 4.89453125 C4.60263672 5.68537109 4.81855469 6.47621094 5.04101562 7.29101562 C5.25435547 8.12310547 5.46769531 8.95519531 5.6875 9.8125 C5.91244141 10.63298828 6.13738281 11.45347656 6.36914062 12.29882812 C7.37613176 16.07274931 8 19.04614153 8 23 C7.01 22.67 6.02 22.34 5 22 C4.67 20.35 4.34 18.7 4 17 C3.87625 18.299375 3.7525 19.59875 3.625 20.9375 C3.4140625 23.15234375 3.4140625 23.15234375 3 25 C2.34 25.33 1.68 25.66 1 26 C0.67 17.42 0.34 8.84 0 0 Z " fill="#151515" transform="translate(335,219)"/>
<path d="M0 0 C0 0.99 0 1.98 0 3 C-2.0625 4.4375 -2.0625 4.4375 -5 6 C-6.18907177 6.68477794 -7.37651952 7.37238205 -8.5625 8.0625 C-12 10 -12 10 -14.3125 11 C-16.55397318 12.32828041 -17.18361134 13.55083401 -18 16 C-17.67 16.99 -17.34 17.98 -17 19 C-17.33 19.66 -17.66 20.32 -18 21 C-18.598125 20.835 -19.19625 20.67 -19.8125 20.5 C-22.11344336 19.8885876 -22.11344336 19.8885876 -25 20 C-25 19.01 -25 18.02 -25 17 C-19.53366764 11.54320749 -7.89337399 0 0 0 Z " fill="#0B0B0B" transform="translate(204,58)"/>
<path d="M0 0 C2.4164124 0.48328248 4.65832183 1.21944061 7 2 C8 7.75 8 7.75 8 10 C8.33 10.66 8.66 11.32 9 12 C10 14 10 14 10 16 C6.43763992 14.50429125 4.27395043 12.47151401 1.6875 9.625 C0.61048828 8.46871094 0.61048828 8.46871094 -0.48828125 7.2890625 C-2 5 -2 5 -1.79296875 2.7734375 C-1 1 -1 1 0 0 Z " fill="#060608" transform="translate(164,215)"/>
<path d="M0 0 C0.99 0.66 1.98 1.32 3 2 C2.01 2.33 1.02 2.66 0 3 C-0.66 3.66 -1.32 4.32 -2 5 C-2.66 5.66 -3.32 6.32 -4 7 C-3.01 7.99 -2.02 8.98 -1 10 C-2.8125 11.5625 -2.8125 11.5625 -5 13 C-8 12 -8 12 -10 9 C-11.65 9.66 -13.3 10.32 -15 11 C-14.94140625 9.234375 -14.94140625 9.234375 -14 7 C-11.63808099 5.56357954 -9.43461163 4.38749171 -6.9375 3.25 C-6.27427734 2.93417969 -5.61105469 2.61835937 -4.92773438 2.29296875 C-3.29115358 1.51588722 -1.64631405 0.75624233 0 0 Z " fill="#0A0A0B" transform="translate(213,108)"/>
<path d="M0 0 C1.05445313 -0.00257812 2.10890625 -0.00515625 3.1953125 -0.0078125 C5.875 0.125 5.875 0.125 7.875 1.125 C7.875 1.785 7.875 2.445 7.875 3.125 C6.225 3.125 4.575 3.125 2.875 3.125 C2.875 3.785 2.875 4.445 2.875 5.125 C4.525 5.125 6.175 5.125 7.875 5.125 C7.545 5.785 7.215 6.445 6.875 7.125 C-0.055 6.63 -0.055 6.63 -7.125 6.125 C-6.795 5.135 -6.465 4.145 -6.125 3.125 C-7.445 3.125 -8.765 3.125 -10.125 3.125 C-10.125 2.465 -10.125 1.805 -10.125 1.125 C-6.7086981 0.08525594 -3.56073988 -0.00874875 0 0 Z " fill="#0B0A0E" transform="translate(245.125,111.875)"/>
<path d="M0 0 C0.99 0 1.98 0 3 0 C3.33 0.99 3.66 1.98 4 3 C3.01 3.33 2.02 3.66 1 4 C0.67 4.66 0.34 5.32 0 6 C-0.66 6 -1.32 6 -2 6 C-2.33 7.32 -2.66 8.64 -3 10 C-11.42857143 12.28571429 -11.42857143 12.28571429 -16 12 C-14.60563059 7.81689176 -11.68256308 6.8540152 -8 4.875 C-3.7410591 2.78388173 -3.7410591 2.78388173 0 0 Z " fill="#0B0A0D" transform="translate(267,323)"/>
<path d="M0 0 C1.31741179 3.02319353 0.92824489 4.21428574 -0.14453125 7.41796875 C-0.68866064 8.67966049 -1.24508296 9.93610847 -1.8125 11.1875 C-2.08642578 11.82880859 -2.36035156 12.47011719 -2.64257812 13.13085938 C-4.72640911 17.86320455 -4.72640911 17.86320455 -7 19 C-7 17.35 -7 15.7 -7 14 C-7.99 14.66 -8.98 15.32 -10 16 C-9.46322564 11.84551354 -8.19850793 9.54037665 -5.5625 6.3125 C-4.94503906 5.54550781 -4.32757813 4.77851562 -3.69140625 3.98828125 C-2 2 -2 2 0 0 Z " fill="#070707" transform="translate(106,81)"/>
<path d="M0 0 C0.66 0.33 1.32 0.66 2 1 C1.01 2.32 0.02 3.64 -1 5 C-0.67 5.66 -0.34 6.32 0 7 C-1.3921875 7.1546875 -1.3921875 7.1546875 -2.8125 7.3125 C-6.16152638 8.03483902 -6.8030365 8.59380188 -9 11 C-9.99 11 -10.98 11 -12 11 C-12 10.34 -12 9.68 -12 9 C-12.66 8.67 -13.32 8.34 -14 8 C-14 7.34 -14 6.68 -14 6 C-12.5390625 4.7109375 -12.5390625 4.7109375 -10.625 3.375 C-9.99851563 2.92898437 -9.37203125 2.48296875 -8.7265625 2.0234375 C-7 1 -7 1 -5 1 C-5 1.99 -5 2.98 -5 4 C-3.35 2.68 -1.7 1.36 0 0 Z " fill="#0C0A0A" transform="translate(160,46)"/>
<path d="M0 0 C9.9 0 19.8 0 30 0 C30 0.66 30 1.32 30 2 C20.76 2.33 11.52 2.66 2 3 C1.67 6.3 1.34 9.6 1 13 C0.67 13 0.34 13 0 13 C0 8.71 0 4.42 0 0 Z " fill="#101010" transform="translate(149,379)"/>
<path d="M0 0 C0 0.66 0 1.32 0 2 C-0.66 2 -1.32 2 -2 2 C-2.33 2.66 -2.66 3.32 -3 4 C-3.99 4.33 -4.98 4.66 -6 5 C-6.66 4.67 -7.32 4.34 -8 4 C-8.33 4.66 -8.66 5.32 -9 6 C-12 8 -12 8 -16 8 C-17.94773557 8.8387856 -17.94773557 8.8387856 -19.75 10 C-20.8225 10.66 -21.895 11.32 -23 12 C-23.33 11.01 -23.66 10.02 -24 9 C-21.62690978 7.87081967 -19.25168006 6.74657935 -16.875 5.625 C-16.20984375 5.30789062 -15.5446875 4.99078125 -14.859375 4.6640625 C-4.94824219 0 -4.94824219 0 0 0 Z " fill="#0C0C0C" transform="translate(190,33)"/>
<path d="M0 0 C1.29349365 0.00523682 2.5869873 0.01047363 3.91967773 0.01586914 C4.9496714 0.01799156 4.9496714 0.01799156 6.00047302 0.02015686 C8.20144949 0.0257706 10.40232557 0.03832532 12.60327148 0.05102539 C14.09220231 0.05603863 15.58113473 0.06060184 17.07006836 0.06469727 C20.72700223 0.07574446 24.38387707 0.09301826 28.04077148 0.11352539 C27.71077148 0.77352539 27.38077148 1.43352539 27.04077148 2.11352539 C25.8296167 2.15110962 25.8296167 2.15110962 24.59399414 2.18945312 C20.95108232 2.30518026 17.30844422 2.42801174 13.66577148 2.55102539 C11.75924805 2.61 11.75924805 2.61 9.81420898 2.67016602 C8.60249023 2.71206055 7.39077148 2.75395508 6.14233398 2.79711914 C4.46131592 2.85210571 4.46131592 2.85210571 2.74633789 2.90820312 C0.07364377 2.93948552 0.07364377 2.93948552 -1.95922852 4.11352539 C-1.95922852 3.45352539 -1.95922852 2.79352539 -1.95922852 2.11352539 C-2.61922852 1.78352539 -3.27922852 1.45352539 -3.95922852 1.11352539 C-2.95922852 0.11352539 -2.95922852 0.11352539 0 0 Z " fill="#0E0E0E" transform="translate(325.959228515625,378.886474609375)"/>
<path d="M0 0 C0.66 0 1.32 0 2 0 C3.30089831 2.60179663 3.16840078 4.5969188 3.1875 7.5 C3.20167969 8.4796875 3.21585937 9.459375 3.23046875 10.46875 C3 13 3 13 1 15 C0.54188325 16.97235333 0.54188325 16.97235333 0.375 19.125 C0.25125 20.40375 0.1275 21.6825 0 23 C-0.33 23 -0.66 23 -1 23 C-1.85602429 14.86776924 -2.31320723 7.89211879 0 0 Z " fill="#0B0B0B" transform="translate(67,151)"/>
<path d="M0 0 C1.65 0.33 3.3 0.66 5 1 C3.13236819 6.72210596 1.14710968 12.37661751 -1 18 C-1.66 18 -2.32 18 -3 18 C-3.42765417 11.58518742 -1.85743168 6.11404596 0 0 Z " fill="#151515" transform="translate(146,129)"/>
<path d="M0 0 C0.99 0.99 1.98 1.98 3 3 C0.10414095 5.29648357 -2.8172031 7.04347557 -6.125 8.6875 C-7.42824219 9.34298828 -7.42824219 9.34298828 -8.7578125 10.01171875 C-11 11 -11 11 -13 11 C-11.59127675 7.63512219 -10.00344528 5.94290543 -7.0625 3.8125 C-6.37285156 3.30332031 -5.68320313 2.79414062 -4.97265625 2.26953125 C-3 1 -3 1 0 0 Z " fill="#0A090B" transform="translate(221,82)"/>
<path d="M0 0 C0.47050781 0.42152344 0.94101562 0.84304687 1.42578125 1.27734375 C2.35970703 2.09912109 2.35970703 2.09912109 3.3125 2.9375 C4.23482422 3.75541016 4.23482422 3.75541016 5.17578125 4.58984375 C7.05241958 6.20081559 7.05241958 6.20081559 10 7 C10 7.66 10 8.32 10 9 C11.134375 9.12375 12.26875 9.2475 13.4375 9.375 C14.613125 9.58125 15.78875 9.7875 17 10 C17.33 10.66 17.66 11.32 18 12 C16.02 12.99 14.04 13.98 12 15 C9.99068029 13.07141188 7.99272731 11.133102 6 9.1875 C5.42765625 8.64029297 4.8553125 8.09308594 4.265625 7.52929688 C2.78599462 6.07608846 1.38703342 4.54183626 0 3 C0 2.01 0 1.02 0 0 Z " fill="#0B0B0B" transform="translate(322,134)"/>
<path d="M0 0 C0.99 0.33 1.98 0.66 3 1 C2.01 1.495 2.01 1.495 1 2 C0.7525 2.928125 0.505 3.85625 0.25 4.8125 C-1.34493588 8.8795865 -3.1964053 9.98176608 -7 12 C-7.99 12 -8.98 12 -10 12 C-8.65263662 9.06559801 -7.11433035 6.74926573 -5 4.3125 C-4.484375 3.71050781 -3.96875 3.10851562 -3.4375 2.48828125 C-2 1 -2 1 0 0 Z " fill="#070708" transform="translate(276,249)"/>
<path d="M0 0 C1.65 0 3.3 0 5 0 C4.67 0.99 4.34 1.98 4 3 C3.34 3 2.68 3 2 3 C1.67 3.99 1.34 4.98 1 6 C-7.57142857 6.14285714 -7.57142857 6.14285714 -11 5 C-11 4.34 -11 3.68 -11 3 C-10.28972656 2.95101563 -9.57945312 2.90203125 -8.84765625 2.8515625 C-7.46900391 2.73941406 -7.46900391 2.73941406 -6.0625 2.625 C-5.14597656 2.55539062 -4.22945312 2.48578125 -3.28515625 2.4140625 C-2.15400391 2.20910156 -2.15400391 2.20910156 -1 2 C-0.67 1.34 -0.34 0.68 0 0 Z " fill="#09090B" transform="translate(216,256)"/>
<path d="M0 0 C0.91397824 5.68697571 0.91397824 10.31302429 0 16 C-0.99 15.67 -1.98 15.34 -3 15 C-3.93255656 11.34538647 -4.745121 7.76895537 -5 4 C-2.30232558 0 -2.30232558 0 0 0 Z " fill="#0D0D0D" transform="translate(313,189)"/>
<path d="M0 0 C0.99 0.66 1.98 1.32 3 2 C2.34 2 1.68 2 1 2 C0.67 2.99 0.34 3.98 0 5 C0.66 5.66 1.32 6.32 2 7 C2 7.99 2 8.98 2 10 C1.34 10 0.68 10 0 10 C-0.33 10.66 -0.66 11.32 -1 12 C-1.66 11.34 -2.32 10.68 -3 10 C-3.45375 10.825 -3.9075 11.65 -4.375 12.5 C-4.91125 13.325 -5.4475 14.15 -6 15 C-6.66 15 -7.32 15 -8 15 C-6.51194289 9.19657726 -3.40902445 4.82409121 0 0 Z " fill="#0D0D0D" transform="translate(174,129)"/>
<path d="M0 0 C4.61513112 1.31860889 8.09897612 3.21355437 12 6 C11.67 6.99 11.34 7.98 11 9 C9.35 9.33 7.7 9.66 6 10 C4.99421411 8.71283353 3.99553202 7.42011342 3 6.125 C2.443125 5.40570313 1.88625 4.68640625 1.3125 3.9453125 C0 2 0 2 0 0 Z " fill="#08080B" transform="translate(165,230)"/>
<path d="M0 0 C-1 3 -1 3 -3.72265625 4.38671875 C-4.82480469 4.81597656 -5.92695313 5.24523437 -7.0625 5.6875 C-8.16722656 6.12449219 -9.27195313 6.56148438 -10.41015625 7.01171875 C-11.26480469 7.33785156 -12.11945313 7.66398437 -13 8 C-13.66 7.34 -14.32 6.68 -15 6 C-14.34 5.34 -13.68 4.68 -13 4 C-13 3.34 -13 2.68 -13 2 C-11.58461283 1.66127487 -10.16762037 1.32925376 -8.75 1 C-7.56664062 0.7215625 -7.56664062 0.7215625 -6.359375 0.4375 C-4 0 -4 0 0 0 Z " fill="#070709" transform="translate(249,274)"/>
<path d="M0 0 C5.49753128 2.17963795 8.03890379 7.12202286 11 12 C12.4375 15.625 12.4375 15.625 13 18 C10 17 10 17 8.9375 15 C8.628125 14.34 8.31875 13.68 8 13 C7.34 12.67 6.68 12.34 6 12 C5.690625 11.195625 5.38125 10.39125 5.0625 9.5625 C4.15452711 6.70136041 4.15452711 6.70136041 1 5 C0.3125 2.375 0.3125 2.375 0 0 Z " fill="#0C0C0C" transform="translate(329,156)"/>
<path d="M0 0 C0.78052734 -0.00386719 1.56105469 -0.00773437 2.36523438 -0.01171875 C8.18414502 -0.00167749 8.18414502 -0.00167749 10.4375 1.125 C10.4375 1.785 10.4375 2.445 10.4375 3.125 C9.30570313 3.11339844 8.17390625 3.10179687 7.0078125 3.08984375 C5.52604331 3.08046546 4.04427235 3.0713653 2.5625 3.0625 C1.81613281 3.05412109 1.06976563 3.04574219 0.30078125 3.03710938 C-3.76095578 2.91811916 -3.76095578 2.91811916 -7.5625 4.125 C-9.6875 3.6875 -9.6875 3.6875 -11.5625 3.125 C-11.5625 2.465 -11.5625 1.805 -11.5625 1.125 C-7.69479545 -0.16423485 -4.02812684 -0.02005706 0 0 Z " fill="#0F0F0F" transform="translate(121.5625,377.875)"/>
<path d="M0 0 C0.66 0 1.32 0 2 0 C1.62964591 6.78982507 -0.40476401 11.26884891 -4 17 C-4.99 16.67 -5.98 16.34 -7 16 C-5.89407668 12.95871087 -4.58262406 10.21327296 -2.9375 7.4375 C-1.4391943 4.77921569 -0.47198038 2.9498774 0 0 Z " fill="#0B0B0B" transform="translate(292,227)"/>
<path d="M0 0 C2.6015625 -0.29296875 2.6015625 -0.29296875 5.625 -0.1875 C7.12933594 -0.14689453 7.12933594 -0.14689453 8.6640625 -0.10546875 C9.43492188 -0.07066406 10.20578125 -0.03585937 11 0 C10.25 4.75 10.25 4.75 8 7 C7.67 5.35 7.34 3.7 7 2 C5.68 2 4.36 2 3 2 C2.67 2.99 2.34 3.98 2 5 C0.68 4.34 -0.64 3.68 -2 3 C-1.34 2.01 -0.68 1.02 0 0 Z " fill="#0B0B0B" transform="translate(87,379)"/>
<path d="M0 0 C0.61077393 0.19182861 1.22154785 0.38365723 1.85083008 0.58129883 C-0.73007759 1.89876216 -3.3136745 3.210395 -5.89916992 4.51879883 C-6.6287793 4.89198242 -7.35838867 5.26516602 -8.11010742 5.6496582 C-8.8190918 6.00737305 -9.52807617 6.36508789 -10.25854492 6.73364258 C-11.23259277 7.22852173 -11.23259277 7.22852173 -12.22631836 7.73339844 C-14.18210071 8.59581999 -16.06457687 9.12504062 -18.14916992 9.58129883 C-18.14916992 8.59129883 -18.14916992 7.60129883 -18.14916992 6.58129883 C-17.41311523 6.32735352 -16.67706055 6.0734082 -15.91870117 5.81176758 C-14.94288086 5.46758789 -13.96706055 5.1234082 -12.96166992 4.76879883 C-11.99874023 4.43235352 -11.03581055 4.0959082 -10.04370117 3.74926758 C-7.1035157 2.67047609 -7.1035157 2.67047609 -4.53588867 0.88208008 C-2.14916992 -0.41870117 -2.14916992 -0.41870117 0 0 Z " fill="#151314" transform="translate(252.149169921875,328.418701171875)"/>
<path d="M0 0 C2.31 0.66 4.62 1.32 7 2 C6.938125 2.9075 6.87625 3.815 6.8125 4.75 C7.02133945 8.36988385 7.7618 9.29550834 10 12 C10 12.99 10 13.98 10 15 C9.01 14.67 8.02 14.34 7 14 C7 12.68 7 11.36 7 10 C6.01 9.67 5.02 9.34 4 9 C3.29788106 7.34795544 2.63028587 5.68076231 2 4 C1.34 3.67 0.68 3.34 0 3 C0 2.01 0 1.02 0 0 Z " fill="#121212" transform="translate(353,178)"/>
<path d="M0 0 C1.03930664 0.07831055 1.03930664 0.07831055 2.09960938 0.15820312 C3.79604437 0.28689819 5.49184863 0.42386184 7.1875 0.5625 C7.1875 0.8925 7.1875 1.2225 7.1875 1.5625 C3.81295836 1.90058357 0.43780319 2.23211318 -2.9375 2.5625 C-3.88882813 2.65789062 -4.84015625 2.75328125 -5.8203125 2.8515625 C-10.50350382 3.30687277 -15.1001326 3.68943246 -19.8125 3.5625 C-19.8125 2.9025 -19.8125 2.2425 -19.8125 1.5625 C-18.2346875 1.3459375 -18.2346875 1.3459375 -16.625 1.125 C-13.05321664 0.66185964 -13.05321664 0.66185964 -10.5625 0 C-6.99152768 -0.56810923 -3.58005862 -0.29805273 0 0 Z " fill="#050507" transform="translate(241.8125,94.4375)"/>
<path d="M0 0 C4.14647088 6.21970633 6.34073197 13.58323466 7 21 C3.65326311 18.31276714 2.66512073 15.02900015 1.25 11.0625 C0.80140625 9.83660156 0.3528125 8.61070312 -0.109375 7.34765625 C-0.93772563 4.23407516 -1.19760721 2.91369071 0 0 Z " fill="#0F0F0F" transform="translate(70,204)"/>
<path d="M0 0 C3.78010855 1.49192754 5.49429699 3.58559193 7.8125 6.875 C8.43769531 7.73867187 9.06289063 8.60234375 9.70703125 9.4921875 C11 12 11 12 10.69921875 14.3203125 C10.46847656 14.87460938 10.23773438 15.42890625 10 16 C10 15.34 10 14.68 10 14 C9.34 14 8.68 14 8 14 C7.731875 13.401875 7.46375 12.80375 7.1875 12.1875 C6.13168678 9.99556112 6.13168678 9.99556112 4.5625 8.5625 C2.58030045 6.58030045 1.32530202 4.46127517 0 2 C0 1.34 0 0.68 0 0 Z " fill="#0E0E0E" transform="translate(359,92)"/>
<path d="M0 0 C1.37478516 0.01740234 1.37478516 0.01740234 2.77734375 0.03515625 C3.69644531 0.04417969 4.61554687 0.05320312 5.5625 0.0625 C6.27277344 0.07410156 6.98304687 0.08570313 7.71484375 0.09765625 C7.71484375 1.08765625 7.71484375 2.07765625 7.71484375 3.09765625 C4.74484375 2.60265625 4.74484375 2.60265625 1.71484375 2.09765625 C2.04484375 4.07765625 2.37484375 6.05765625 2.71484375 8.09765625 C1.72484375 8.59265625 1.72484375 8.59265625 0.71484375 9.09765625 C-0.60515625 6.45765625 -1.92515625 3.81765625 -3.28515625 1.09765625 C-2.28515625 0.09765625 -2.28515625 0.09765625 0 0 Z " fill="#0D0D0D" transform="translate(52.28515625,378.90234375)"/>
<path d="M0 0 C0.66 0.66 1.32 1.32 2 2 C1.34 2 0.68 2 0 2 C0.061875 2.763125 0.12375 3.52625 0.1875 4.3125 C-0.03512091 7.50339968 -0.68302438 7.96106145 -3 10 C-3.33 10.99 -3.66 11.98 -4 13 C-4.66 13.66 -5.32 14.32 -6 15 C-6 14.34 -6 13.68 -6 13 C-6.66 12.67 -7.32 12.34 -8 12 C-6.68 9.36 -5.36 6.72 -4 4 C-3.34 4 -2.68 4 -2 4 C-1.34 2.68 -0.68 1.36 0 0 Z " fill="#0B0B0B" transform="translate(159,80)"/>
<path d="M0 0 C1.07765625 0.00902344 2.1553125 0.01804687 3.265625 0.02734375 C4.08546875 0.03894531 4.9053125 0.05054687 5.75 0.0625 C2.3147952 2.35263653 0.764669 2.24092973 -3.25 2.0625 C-3.25 3.3825 -3.25 4.7025 -3.25 6.0625 C-4.57 6.0625 -5.89 6.0625 -7.25 6.0625 C-6.92 5.0725 -6.59 4.0825 -6.25 3.0625 C-7.57 3.0625 -8.89 3.0625 -10.25 3.0625 C-10.25 2.4025 -10.25 1.7425 -10.25 1.0625 C-6.78777385 -0.00473961 -3.60960734 -0.03923486 0 0 Z " fill="#1A1A1D" transform="translate(245.25,111.9375)"/>
<path d="M0 0 C1.65 0 3.3 0 5 0 C3.49087042 4.98012761 0.44338151 8.24259942 -3 12 C-4 10 -4 10 -3.1875 7.125 C-2.24475819 4.6441005 -1.2557794 2.33216175 0 0 Z " fill="#090909" transform="translate(332,299)"/>
<path d="M0 0 C1.98 0.99 1.98 0.99 4 2 C4 2.66 4 3.32 4 4 C4.66 4 5.32 4 6 4 C6.33 3.34 6.66 2.68 7 2 C7.75 3.75 7.75 3.75 8 6 C6.0625 8.25 6.0625 8.25 4 10 C2 9 2 9 0.875 6.6875 C0 4 0 4 0 0 Z " fill="#040404" transform="translate(324,170)"/>
<path d="M0 0 C0.66 0.33 1.32 0.66 2 1 C-4.435 5.95 -4.435 5.95 -11 11 C-11 7.86248779 -10.64820195 6.60242414 -9 4 C-8.01 3.67 -7.02 3.34 -6 3 C-4.989375 2.46375 -3.97875 1.9275 -2.9375 1.375 C-1.968125 0.92125 -0.99875 0.4675 0 0 Z " fill="#0E0E0D" transform="translate(317,320)"/>
<path d="M0 0 C5.54050113 0.56825653 10.03715966 2.62886517 15 5 C14.67 5.99 14.34 6.98 14 8 C14 7.34 14 6.68 14 6 C10.04 5.67 6.08 5.34 2 5 C2 4.01 2 3.02 2 2 C1.34 2 0.68 2 0 2 C0 1.34 0 0.68 0 0 Z " fill="#080809" transform="translate(314,66)"/>
<path d="M0 0 C-0.99 0.99 -1.98 1.98 -3 3 C-3.99 2.67 -4.98 2.34 -6 2 C-8.7668544 2.53417136 -8.7668544 2.53417136 -11.6875 3.4375 C-13.17830078 3.86869141 -13.17830078 3.86869141 -14.69921875 4.30859375 C-15.45847656 4.53675781 -16.21773437 4.76492187 -17 5 C-17.33 4.01 -17.66 3.02 -18 2 C-15.75256955 1.46818825 -13.50192898 0.94992874 -11.25 0.4375 C-9.99703125 0.14746094 -8.7440625 -0.14257812 -7.453125 -0.44140625 C-4.40526252 -0.93444283 -2.82358172 -1.07666879 0 0 Z " fill="#0B0B0C" transform="translate(248,44)"/>
<path d="M0 0 C0.66 0.33 1.32 0.66 2 1 C1.91306859 2.79258558 1.80489496 4.58415144 1.6875 6.375 C1.62949219 7.37273437 1.57148438 8.37046875 1.51171875 9.3984375 C1.34285156 10.25695312 1.17398437 11.11546875 1 12 C0.01 12.66 -0.98 13.32 -2 14 C-3.32365626 10.02903122 -2.24318252 7.93674465 -1 4 C-0.65864073 2.66869885 -0.32074044 1.33641852 0 0 Z " fill="#0B0A0C" transform="translate(309,234)"/>
<path d="M0 0 C0.9075 0.78375 1.815 1.5675 2.75 2.375 C5.05190236 4.30052496 7.21577207 5.82205741 10 7 C10 7.66 10 8.32 10 9 C4.52067211 7.45454854 -0.11429181 4.84456788 -5 2 C-4.34 1.67 -3.68 1.34 -3 1 C-2.01 1.33 -1.02 1.66 0 2 C0 1.34 0 0.68 0 0 Z " fill="#0F0F0F" transform="translate(144,322)"/>
<path d="M0 0 C3.43755988 1.24134107 6.34880683 2.4434923 9 5 C9.75 7.6875 9.75 7.6875 10 10 C9.01 10.495 9.01 10.495 8 11 C6.66375099 9.35653302 5.33107149 7.71016314 4 6.0625 C3.2575 5.14597656 2.515 4.22945312 1.75 3.28515625 C0 1 0 1 0 0 Z " fill="#040404" transform="translate(301,130)"/>
<path d="M0 0 C1.98 0.66 3.96 1.32 6 2 C6.33 3.98 6.66 5.96 7 8 C5.125 8.625 5.125 8.625 3 9 C1 7 1 7 0.9375 4.5 C0.958125 3.675 0.97875 2.85 1 2 C0.67 1.34 0.34 0.68 0 0 Z " fill="#121212" transform="translate(165,215)"/>
<path d="M0 0 C1.11126362 3.33379087 0.95133201 5.62709561 0 9 C-0.99 10.485 -0.99 10.485 -2 12 C-2.66 12 -3.32 12 -4 12 C-3.71788123 10.3733152 -3.42397625 8.74867104 -3.125 7.125 C-2.96257812 6.22007813 -2.80015625 5.31515625 -2.6328125 4.3828125 C-2 2 -2 2 0 0 Z " fill="#101010" transform="translate(151,94)"/>
<path d="M0 0 C-3.32851768 3.01343955 -5.81882813 3.44667544 -10.25 3.6875 C-11.32765625 3.75324219 -12.4053125 3.81898437 -13.515625 3.88671875 C-14.74539062 3.94279297 -14.74539062 3.94279297 -16 4 C-13.71185277 1.71185277 -12.19248378 1.24548839 -9.125 0.3125 C-8.26132813 0.04050781 -7.39765625 -0.23148437 -6.5078125 -0.51171875 C-3.91305068 -1.01692938 -2.469215 -0.85561171 0 0 Z " fill="#171618" transform="translate(241,92)"/>
<path d="M0 0 C0.66 0.66 1.32 1.32 2 2 C-0.41556126 5.19199167 -2.68003538 7.74716687 -6 10 C-6.33 9.01 -6.66 8.02 -7 7 C-4.89921489 3.92385037 -3.11378405 2.07585603 0 0 Z " fill="#070709" transform="translate(190,87)"/>
<path d="M0 0 C0.66 0 1.32 0 2 0 C2 0.99 2 1.98 2 3 C1.34 3 0.68 3 0 3 C0.33 3.99 0.66 4.98 1 6 C0.34 6.66 -0.32 7.32 -1 8 C-1.66 8 -2.32 8 -3 8 C-3.66 9.32 -4.32 10.64 -5 12 C-5.67578125 10.265625 -5.67578125 10.265625 -6 8 C-4.85546875 5.859375 -4.85546875 5.859375 -3.1875 3.75 C-2.37345703 2.69039063 -2.37345703 2.69039063 -1.54296875 1.609375 C-1.03378906 1.07828125 -0.52460937 0.5471875 0 0 Z " fill="#131313" transform="translate(102,85)"/>
<path d="M0 0 C0.66 0.66 1.32 1.32 2 2 C1.68794085 6.75890208 1.03944563 10.64918266 -1 15 C-1.66 14.67 -2.32 14.34 -3 14 C-2.48594831 9.03083364 -1.76615118 4.70973649 0 0 Z " fill="#0B0809" transform="translate(367,251)"/>
<path d="M0 0 C4.60428934 1.31551124 8.18320388 3.09196486 12 6 C12 6.66 12 7.32 12 8 C8 8 8 8 6.5625 6.625 C6.046875 6.08875 5.53125 5.5525 5 5 C2.40084462 3.80972016 2.40084462 3.80972016 0 3 C0 2.01 0 1.02 0 0 Z " fill="#0B0B0B" transform="translate(318,58)"/>
<path d="M0 0 C2.02045442 0.60183749 4.02111039 1.27306096 6 2 C6.33 2.66 6.66 3.32 7 4 C5.02 4.66 3.04 5.32 1 6 C0.01 5.01 -0.98 4.02 -2 3 C-1.34 2.01 -0.68 1.02 0 0 Z " fill="#0E0E0E" transform="translate(287,334)"/>
<path d="M0 0 C0.66 0.33 1.32 0.66 2 1 C0.625 3.5 0.625 3.5 -1 6 C-1.66 6 -2.32 6 -3 6 C-3.309375 6.61875 -3.61875 7.2375 -3.9375 7.875 C-4.625 9.25 -5.3125 10.625 -6 12 C-6.66 11.67 -7.32 11.34 -8 11 C-5.9785845 6.42521756 -3.68006822 3.38168431 0 0 Z " fill="#080809" transform="translate(193,119)"/>
<path d="M0 0 C0.66 0 1.32 0 2 0 C2.33 0.99 2.66 1.98 3 3 C2.02727325 4.35335895 1.0260734 5.68662604 0 7 C0 7.99 0 8.98 0 10 C-0.66 10 -1.32 10 -2 10 C-2 10.99 -2 11.98 -2 13 C-2.66 13 -3.32 13 -4 13 C-3.40895235 8.15340923 -2.02055843 4.39251833 0 0 Z " fill="#0E0E0F" transform="translate(151,115)"/>
<path d="M0 0 C-1.12451727 2.9719385 -2.22293791 5.33440687 -4 8 C-4.66 8 -5.32 8 -6 8 C-6.66 6.68 -7.32 5.36 -8 4 C-3.375 0 -3.375 0 0 0 Z " fill="#020203" transform="translate(279,278)"/>
<path d="M0 0 C3.3 0 6.6 0 10 0 C9.67 0.99 9.34 1.98 9 3 C7.02 3.33 5.04 3.66 3 4 C2.01 2.68 1.02 1.36 0 0 Z " fill="#111014" transform="translate(228,105)"/>
<path d="M0 0 C2.0625 0.75 2.0625 0.75 4 2 C4.33 2.99 4.66 3.98 5 5 C1.7 5 -1.6 5 -5 5 C-3.68 4.67 -2.36 4.34 -1 4 C-1.33 3.01 -1.66 2.02 -2 1 C-1.34 0.67 -0.68 0.34 0 0 Z " fill="#0E0E0F" transform="translate(186,410)"/>
<path d="M0 0 C3.63 0 7.26 0 11 0 C10.67 1.32 10.34 2.64 10 4 C9.46375 3.855625 8.9275 3.71125 8.375 3.5625 C5.60084173 2.90546252 2.81474612 2.44780052 0 2 C0 1.34 0 0.68 0 0 Z " fill="#0E0E0E" transform="translate(234,379)"/>
<path d="M0 0 C6.93 0.495 6.93 0.495 14 1 C10.47320901 3.35119399 8.97120515 3.21443452 4.8125 3.125 C3.72582031 3.10695313 2.63914062 3.08890625 1.51953125 3.0703125 C0.27236328 3.03550781 0.27236328 3.03550781 -1 3 C-0.67 2.01 -0.34 1.02 0 0 Z " fill="#0A0A0C" transform="translate(273,89)"/>
<path d="M0 0 C2.125 0.9375 2.125 0.9375 4 2 C2.75 4.5 2.75 4.5 1 7 C-0.32 7 -1.64 7 -3 7 C-2.625 4.0625 -2.625 4.0625 -2 1 C-1.34 0.67 -0.68 0.34 0 0 Z " fill="#080808" transform="translate(310,281)"/>
<path d="M0 0 C0.66 0.99 1.32 1.98 2 3 C2.33 2.34 2.66 1.68 3 1 C3 3.31 3 5.62 3 8 C2.01 8.495 2.01 8.495 1 9 C0.01 7.68 -0.98 6.36 -2 5 C-2.99 5.495 -2.99 5.495 -4 6 C-2.84826645 3.53199953 -1.95216435 1.95216435 0 0 Z " fill="#0F0F0F" transform="translate(89,216)"/>
<path d="M0 0 C3 1 3 1 4.75 3.8125 C5.98589446 6.96403086 6.28222189 7.96929372 5 11 C4.731875 10.4225 4.46375 9.845 4.1875 9.25 C3.05815166 6.94603902 3.05815166 6.94603902 1.375 4.9375 C0 3 0 3 0 0 Z " fill="#0A0A0A" transform="translate(80,206)"/>
<path d="M0 0 C0 0.66 0 1.32 0 2 C-2.01822917 2.45572917 -4.03645833 2.91145833 -6.0546875 3.3671875 C-8.20719964 3.90474428 -8.20719964 3.90474428 -10 6 C-10.99 5.34 -11.98 4.68 -13 4 C-8.4847676 1.19323391 -5.34703211 -0.14451438 0 0 Z " fill="#070709" transform="translate(232,114)"/>
<path d="M0 0 C0.33 0.66 0.66 1.32 1 2 C0.34 2 -0.32 2 -1 2 C-1.33 3.65 -1.66 5.3 -2 7 C-3.32 7.33 -4.64 7.66 -6 8 C-6 4 -6 4 -4.6875 2.3125 C-3 1 -3 1 0 0 Z " fill="#0C0C0C" transform="translate(145,55)"/>
<path d="M0 0 C2.91843445 2.626591 4.94517315 5.66976339 7 9 C7 9.66 7 10.32 7 11 C3.30209954 9.76736651 3.0645154 8.79947549 1.3125 5.4375 C0.87550781 4.61121094 0.43851563 3.78492188 -0.01171875 2.93359375 C-0.33785156 2.29550781 -0.66398438 1.65742188 -1 1 C-0.67 0.67 -0.34 0.34 0 0 Z " fill="#0F0F0F" transform="translate(210,397)"/>
<path d="M0 0 C1.65 0 3.3 0 5 0 C4 2 3 4 2 6 C1.34 6 0.68 6 0 6 C-0.33 6.66 -0.66 7.32 -1 8 C-2.2077558 4.37673261 -1.54311128 3.35853631 0 0 Z " fill="#141414" transform="translate(341,301)"/>
<path d="M0 0 C0 0.66 0 1.32 0 2 C0.99 2 1.98 2 3 2 C3.66 3.32 4.32 4.64 5 6 C4.01 6.495 4.01 6.495 3 7 C-2.875 3.25 -2.875 3.25 -4 1 C-2 0 -2 0 0 0 Z " fill="#060608" transform="translate(178,230)"/>
<path d="M0 0 C3.12290635 0.48578543 5.99580359 0.9986012 9 2 C9 2.66 9 3.32 9 4 C5.37 4 1.74 4 -2 4 C-1.34 2.68 -0.68 1.36 0 0 Z " fill="#040405" transform="translate(241,90)"/>
<path d="M0 0 C3.63 0 7.26 0 11 0 C11.33 0.99 11.66 1.98 12 3 C8.04 2.67 4.08 2.34 0 2 C0 1.34 0 0.68 0 0 Z " fill="#171717" transform="translate(279,403)"/>
<path d="M0 0 C-0.99 0.495 -0.99 0.495 -2 1 C-2.33 1.66 -2.66 2.32 -3 3 C-6.0625 3.625 -6.0625 3.625 -9 4 C-9.33 3.34 -9.66 2.68 -10 2 C-6.49223216 0.39644899 -3.85645121 -0.22036864 0 0 Z M-12 3 C-11.34 3 -10.68 3 -10 3 C-10 3.66 -10 4.32 -10 5 C-10.66 5 -11.32 5 -12 5 C-12 4.34 -12 3.68 -12 3 Z " fill="#0A0A0B" transform="translate(246,299)"/>
<path d="M0 0 C1.6490302 0.61651583 3.29415841 1.24347742 4.9375 1.875 C6.31228516 2.39707031 6.31228516 2.39707031 7.71484375 2.9296875 C10 4 10 4 11 6 C6.15340923 5.40895235 2.39251833 4.02055843 -2 2 C-1.34 1.34 -0.68 0.68 0 0 Z " fill="#121212" transform="translate(301,93)"/>
<path d="M0 0 C0.99 0.66 1.98 1.32 3 2 C-1.95 4.475 -1.95 4.475 -7 7 C-7.33 6.01 -7.66 5.02 -8 4 C-5.36 2.68 -2.72 1.36 0 0 Z " fill="#121212" transform="translate(174,38)"/>
<path d="M0 0 C2.49361571 1.20381448 4.68143083 2.45428722 7 4 C7.66 4 8.32 4 9 4 C8.67 4.99 8.34 5.98 8 7 C4.21388773 6.45912682 2.44599233 4.88277668 0 2 C0 1.34 0 0.68 0 0 Z " fill="#0D0D0D" transform="translate(95,255)"/>
<path d="M0 0 C2.475 0.99 2.475 0.99 5 2 C4.814375 2.598125 4.62875 3.19625 4.4375 3.8125 C3.77906313 6.16408762 3.77906313 6.16408762 5 9 C4.01 8.67 3.02 8.34 2 8 C1.26953125 6.15234375 1.26953125 6.15234375 0.8125 3.9375 C0.65394531 3.20402344 0.49539063 2.47054687 0.33203125 1.71484375 C0.22246094 1.14894531 0.11289062 0.58304688 0 0 Z " fill="#0C0C0C" transform="translate(329,184)"/>
<path d="M0 0 C4.61513112 1.31860889 8.09897612 3.21355437 12 6 C11.01 6.33 10.02 6.66 9 7 C6.73828125 5.8203125 6.73828125 5.8203125 4.3125 4.125 C3.50425781 3.57070313 2.69601563 3.01640625 1.86328125 2.4453125 C1.24839844 1.96835937 0.63351563 1.49140625 0 1 C0 0.67 0 0.34 0 0 Z " fill="#0B0B0B" transform="translate(126,301)"/>
<path d="M0 0 C3 0 3 0 4.38671875 1.3125 C5.59114583 2.875 6.79557292 4.4375 8 6 C7.67 6.66 7.34 7.32 7 8 C5.8274869 7.04882866 4.66212985 6.08882991 3.5 5.125 C2.8503125 4.59132813 2.200625 4.05765625 1.53125 3.5078125 C1.0259375 3.01023437 0.520625 2.51265625 0 2 C0 1.34 0 0.68 0 0 Z " fill="#080808" transform="translate(108,285)"/>
<path d="M0 0 C0.66 0 1.32 0 2 0 C2.77321882 2.98241547 3.41196203 5.97580475 4 9 C3.67 8.34 3.34 7.68 3 7 C1.68 7 0.36 7 -1 7 C-0.67 4.69 -0.34 2.38 0 0 Z " fill="#0F0F0F" transform="translate(140,205)"/>
<path d="M0 0 C0.66 0.66 1.32 1.32 2 2 C1.9765625 4.1640625 1.9765625 4.1640625 1.625 6.625 C1.51414063 7.44226563 1.40328125 8.25953125 1.2890625 9.1015625 C1.19367188 9.72804687 1.09828125 10.35453125 1 11 C0.34 11 -0.32 11 -1 11 C-1.14285714 3.57142857 -1.14285714 3.57142857 0 0 Z " fill="#202020" transform="translate(144,136)"/>
<path d="M0 0 C1.9453125 0.77734375 1.9453125 0.77734375 4.125 1.9375 C5.21167969 2.50791016 5.21167969 2.50791016 6.3203125 3.08984375 C6.87460937 3.39019531 7.42890625 3.69054687 8 4 C8.33 3.34 8.66 2.68 9 2 C9 2.99 9 3.98 9 5 C7.3125 5.6875 7.3125 5.6875 5 6 C2.20155619 4.6007781 0.21208617 3.21208617 -2 1 C-1.34 0.67 -0.68 0.34 0 0 Z " fill="#090909" transform="translate(326,129)"/>
<path d="M0 0 C2.31 0 4.62 0 7 0 C6.1875 2.4375 6.1875 2.4375 5 5 C4.01 5.33 3.02 5.66 2 6 C1.34 4.02 0.68 2.04 0 0 Z " fill="#080609" transform="translate(244,49)"/>
<path d="M0 0 C-0.53625 0.2475 -1.0725 0.495 -1.625 0.75 C-4.56424252 2.29696975 -7.25754408 4.13014369 -10 6 C-10 5.01 -10 4.02 -10 3 C-3.375 -1.125 -3.375 -1.125 0 0 Z " fill="#0A0A0A" transform="translate(191,42)"/>
<path d="M0 0 C1.37478516 0.01740234 1.37478516 0.01740234 2.77734375 0.03515625 C3.69644531 0.04417969 4.61554688 0.05320312 5.5625 0.0625 C6.27277344 0.07410156 6.98304688 0.08570313 7.71484375 0.09765625 C6.72484375 1.58265625 6.72484375 1.58265625 5.71484375 3.09765625 C2.21484375 3.41015625 2.21484375 3.41015625 -1.28515625 3.09765625 C-1.94515625 2.43765625 -2.60515625 1.77765625 -3.28515625 1.09765625 C-2.28515625 0.09765625 -2.28515625 0.09765625 0 0 Z " fill="#0F0F0F" transform="translate(392.28515625,378.90234375)"/>
<path d="M0 0 C2.64 0.33 5.28 0.66 8 1 C5.33440687 2.77706209 2.9719385 3.87548273 0 5 C-0.66 4.34 -1.32 3.68 -2 3 C-1.34 2.34 -0.68 1.68 0 1 C0 0.67 0 0.34 0 0 Z " fill="#0E0E0E" transform="translate(236,277)"/>
<path d="M0 0 C0.99 0.33 1.98 0.66 3 1 C0.25 5.875 0.25 5.875 -2 7 C-3 4 -3 4 -2 1 C-1.34 0.67 -0.68 0.34 0 0 Z " fill="#070707" transform="translate(370,272)"/>
<path d="M0 0 C0.66 0.33 1.32 0.66 2 1 C1.2575 1.8971875 1.2575 1.8971875 0.5 2.8125 C-1.28276418 4.97029994 -1.28276418 4.97029994 -1 8 C-1.99 7.34 -2.98 6.68 -4 6 C-3.6875 4.125 -3.6875 4.125 -3 2 C-2.01 1.34 -1.02 0.68 0 0 Z " fill="#0C0C0C" transform="translate(303,401)"/>
<path d="M0 0 C0 0.99 0 1.98 0 3 C-3.465 4.485 -3.465 4.485 -7 6 C-7.33 5.34 -7.66 4.68 -8 4 C-7.34 3.34 -6.68 2.68 -6 2 C-5.34 2.33 -4.68 2.66 -4 3 C-3.67 2.34 -3.34 1.68 -3 1 C-2.01 0.67 -1.02 0.34 0 0 Z " fill="#0E0E0C" transform="translate(187,399)"/>
<path d="M0 0 C2.97 0.99 5.94 1.98 9 3 C9 3.66 9 4.32 9 5 C6.36 4.67 3.72 4.34 1 4 C0.67 2.68 0.34 1.36 0 0 Z " fill="#121212" transform="translate(158,318)"/>
<path d="M0 0 C1.2065625 0.0309375 1.2065625 0.0309375 2.4375 0.0625 C2.1075 1.3825 1.7775 2.7025 1.4375 4.0625 C0.1175 4.3925 -1.2025 4.7225 -2.5625 5.0625 C-3.125 3.125 -3.125 3.125 -3.5625 1.0625 C-2.5625 0.0625 -2.5625 0.0625 0 0 Z " fill="#010102" transform="translate(217.5625,296.9375)"/>
<path d="M0 0 C0.66 0.33 1.32 0.66 2 1 C1.67 3.31 1.34 5.62 1 8 C0.01 8.33 -0.98 8.66 -2 9 C-1.125 1.125 -1.125 1.125 0 0 Z " fill="#0A0A0A" transform="translate(330,269)"/>
<path d="M0 0 C0.33 0 0.66 0 1 0 C1.125 6.625 1.125 6.625 0 10 C-0.66 10 -1.32 10 -2 10 C-1.125 2.25 -1.125 2.25 0 0 Z " fill="#0C0C0C" transform="translate(336,247)"/>
<path d="M0 0 C0.66 0.33 1.32 0.66 2 1 C2 1.99 2 2.98 2 4 C1.01 4.495 1.01 4.495 0 5 C-1.13350534 7.01669827 -1.13350534 7.01669827 -2 9 C-2.33 9 -2.66 9 -3 9 C-3.26218749 5.85375007 -3.24754367 4.38162983 -1.5 1.6875 C-1.005 1.130625 -0.51 0.57375 0 0 Z " fill="#0E0E0E" transform="translate(122,83)"/>
<path d="M0 0 C-0.33 0.99 -0.66 1.98 -1 3 C-3.875 3.625 -3.875 3.625 -7 4 C-7.66 3.34 -8.32 2.68 -9 2 C-5.62902617 0.50178941 -3.79557881 0 0 0 Z " fill="#181818" transform="translate(275,328)"/>
<path d="M0 0 C0.66 0.33 1.32 0.66 2 1 C1.125 5.75 1.125 5.75 0 8 C-0.99 7.67 -1.98 7.34 -3 7 C-2.01 4.69 -1.02 2.38 0 0 Z " fill="#0A0A0B" transform="translate(317,285)"/>
<path d="M0 0 C0.99 0 1.98 0 3 0 C3.33 1.98 3.66 3.96 4 6 C2.02 5.34 0.04 4.68 -2 4 C-1.34 2.68 -0.68 1.36 0 0 Z " fill="#101010" transform="translate(133,285)"/>
<path d="M0 0 C0.66 1.32 1.32 2.64 2 4 C0.68 5.32 -0.64 6.64 -2 8 C-2.66 7.67 -3.32 7.34 -4 7 C-2.79618552 4.50638429 -1.54571278 2.31856917 0 0 Z " fill="#0D0D0D" transform="translate(330,172)"/>
<path d="M0 0 C2.50037734 2.17424117 3.43628586 3.73045798 4 7 C3.01 7.495 3.01 7.495 2 8 C0.4375 5.6875 0.4375 5.6875 -1 3 C-0.67 2.01 -0.34 1.02 0 0 Z " fill="#080808" transform="translate(353,170)"/>
<path d="M0 0 C2.64 0 5.28 0 8 0 C8 0.66 8 1.32 8 2 C3.545 2.495 3.545 2.495 -1 3 C-0.67 2.01 -0.34 1.02 0 0 Z " fill="#06060B" transform="translate(265,100)"/>
<path d="M0 0 C0.33 0.66 0.66 1.32 1 2 C-1.64 2 -4.28 2 -7 2 C-7 1.34 -7 0.68 -7 0 C-3.88407501 -1.03864166 -2.9737344 -1.09036928 0 0 Z " fill="#0B0A0B" transform="translate(227,349)"/>
<path d="M0 0 C1.32 0.33 2.64 0.66 4 1 C2.95125002 3.62187494 2.35068687 4.79371361 -0.125 6.25 C-0.74375 6.4975 -1.3625 6.745 -2 7 C-1.34 4.69 -0.68 2.38 0 0 Z " fill="#0B0B0C" transform="translate(283,279)"/>
<path d="M0 0 C2.4375 0.75 2.4375 0.75 5 2 C5.8125 4.125 5.8125 4.125 6 6 C5.01 6 4.02 6 3 6 C0 2.66666667 0 2.66666667 0 0 Z " fill="#0B0B0B" transform="translate(90,248)"/>
<path d="M0 0 C0.99 0 1.98 0 3 0 C4.75 1.75 4.75 1.75 6 4 C5.578125 6.140625 5.578125 6.140625 5 8 C4.16382818 6.8562364 3.33113541 5.70992861 2.5 4.5625 C2.0359375 3.92441406 1.571875 3.28632813 1.09375 2.62890625 C0 1 0 1 0 0 Z " fill="#080807" transform="translate(126,228)"/>
<path d="M0 0 C0.66 0 1.32 0 2 0 C2.33 2.64 2.66 5.28 3 8 C2.01 8.495 2.01 8.495 1 9 C0.67 6.03 0.34 3.06 0 0 Z " fill="#0C0C0C" transform="translate(127,158)"/>
<path d="M0 0 C1.485 0.99 1.485 0.99 3 2 C3.1875 5.125 3.1875 5.125 3 8 C2.34 8 1.68 8 1 8 C0.17361624 5.10765685 0 3.11257569 0 0 Z " fill="#0B090C" transform="translate(96,134)"/>
<path d="M0 0 C3.465 1.485 3.465 1.485 7 3 C6.67 3.99 6.34 4.98 6 6 C4.02 5.01 2.04 4.02 0 3 C0 2.01 0 1.02 0 0 Z " fill="#0D0D0D" transform="translate(269,132)"/>
<path d="M0 0 C-3.26545761 1.88391785 -6.28111761 2.49287967 -10 3 C-7.00991906 -1.48512141 -4.87831759 -1.18661779 0 0 Z " fill="#080808" transform="translate(214,34)"/>
<path d="M0 0 C2.64 0.33 5.28 0.66 8 1 C8 1.66 8 2.32 8 3 C5.36 2.67 2.72 2.34 0 2 C0 1.34 0 0.68 0 0 Z " fill="#101010" transform="translate(166,335)"/>
<path d="M0 0 C2.1385485 2.1385485 2.42655063 3.13275314 3 6 C2.01 6.66 1.02 7.32 0 8 C-0.38063221 5.6739143 -0.71269945 3.33944736 -1 1 C-0.67 0.67 -0.34 0.34 0 0 Z " fill="#0C0C0C" transform="translate(68,196)"/>
<path d="M0 0 C2.56687367 3.8503105 1.83288724 5.58569763 1 10 C0.67 10 0.34 10 0 10 C0 8.35 0 6.7 0 5 C-0.66 4.67 -1.32 4.34 -2 4 C-1.34 4 -0.68 4 0 4 C0 2.68 0 1.36 0 0 Z " fill="#090909" transform="translate(125,133)"/>
<path d="M0 0 C0.33 0 0.66 0 1 0 C1 2.31 1 4.62 1 7 C0.01 7.495 0.01 7.495 -1 8 C-1.625 5.125 -1.625 5.125 -2 2 C-1.34 1.34 -0.68 0.68 0 0 Z " fill="#161616" transform="translate(129,115)"/>
<path d="M0 0 C0.66 0 1.32 0 2 0 C2 0.99 2 1.98 2 3 C1.34 3 0.68 3 0 3 C0 4.32 0 5.64 0 7 C-0.99 7 -1.98 7 -3 7 C-1.125 1.125 -1.125 1.125 0 0 Z " fill="#141414" transform="translate(168,113)"/>
<path d="M0 0 C0 0.99 0 1.98 0 3 C-1.98 3.99 -1.98 3.99 -4 5 C-4.99 4.34 -5.98 3.68 -7 3 C-2.25 0 -2.25 0 0 0 Z " fill="#090909" transform="translate(204,58)"/>
<path d="" fill="#000000" transform="translate(0,0)"/>
<path d="" fill="#000000" transform="translate(0,0)"/>
<path d="" fill="#000000" transform="translate(0,0)"/>
</svg>
